<?xml version="1.0" encoding="UTF-8"?>
<svg id="Layer_1" data-name="Layer 1" xmlns="http://www.w3.org/2000/svg" xmlns:xlink="http://www.w3.org/1999/xlink" viewBox="0 0 792 612">
  <defs>
    <style>
      .cls-1 {
        fill: none;
        stroke: #b1b3b6;
        stroke-miterlimit: 10;
        stroke-width: 8.5px;
      }

      .cls-2 {
        fill: url(#linear-gradient);
      }

      .cls-2, .cls-3, .cls-4, .cls-5 {
        stroke-width: 0px;
      }

      .cls-6 {
        stroke: #fff;
        stroke-width: .5px;
      }

      .cls-6, .cls-5 {
        fill: #fff;
      }

      .cls-3 {
        fill: #58595b;
      }

      .cls-4 {
        fill: #231f20;
      }
    </style>
    <linearGradient id="linear-gradient" x1="226.6" y1="305.09" x2="566.67" y2="305.09" gradientUnits="userSpaceOnUse">
      <stop offset="0" stop-color="#fff"/>
      <stop offset=".08" stop-color="#d7d7d7"/>
      <stop offset=".19" stop-color="#acabab"/>
      <stop offset=".31" stop-color="#868586"/>
      <stop offset=".43" stop-color="#686667"/>
      <stop offset=".55" stop-color="#504f4f"/>
      <stop offset=".68" stop-color="#403e3f"/>
      <stop offset=".82" stop-color="#363435"/>
      <stop offset="1" stop-color="#333132"/>
    </linearGradient>
  </defs>
  <path class="cls-4" d="m613.29,258.04h-43.77c-21.03-76.14-90.75-132.07-173.59-132.07s-152.55,55.93-173.57,132.07h-43.31v97.05h43.58c21.35,75.65,90.83,131.11,173.3,131.11s151.97-55.46,173.32-131.11h44.04v-97.05Z"/>
  <path class="cls-2" d="m565.28,305.09c0,93.53-75.82,169.34-169.35,169.34s-169.33-75.81-169.33-169.34,75.82-169.34,169.33-169.34,169.35,75.81,169.35,169.34Z"/>
  <path class="cls-6" d="m440.03,137.91c-92.01-24.31-186.64,30.77-210.94,122.78-24.3,92.01,30.78,186.64,122.79,210.94,92.01,24.31,186.64-30.77,210.94-122.78,24.3-92.01-30.77-186.64-122.78-210.94Zm-109.41,317.73c-7.09-4.85-13.46-10.86-19.02-17.71-10.4-12.81-17.85-28.4-22.77-44.95.68.29,1.35.59,2.03.88,13.09,5.49,26.44,10.26,39.93,14.49.04,1.09.05,2.18.1,3.27.35,7.89,1.1,15.7,2.48,23.21,1.39,7.51,3.42,14.82,6.67,21.1,1.32,2.53,2.87,4.85,4.66,6.86-1.5-.48-2.99-.99-4.46-1.52-3.32-1.64-6.54-3.5-9.63-5.61Zm-97.88-128.17c-2.36-17.52-1.83-35.39,1.45-52.74,2.45,3.24,5.26,5.88,8.18,8.31,5.92,4.89,12.3,8.89,18.77,12.63,5.55,3.15,11.21,6.04,16.93,8.76-1.1,7.82-1.79,15.69-2.1,23.56-2.51,0-5.04.04-7.56.15-6.62.34-13.27.99-19.93,2.66-3.32.87-6.66,1.96-9.9,3.81-1.44.83-2.85,1.83-4.15,3.11-.66-3.4-1.24-6.81-1.69-10.24Zm37.99-129.88c.5,1.64,1.21,3.13,2.01,4.48,1.92,3.21,4.29,5.82,6.77,8.21,4.99,4.75,10.48,8.61,16.09,12.17,2.26,1.41,4.55,2.76,6.86,4.06-3.52,6.91-6.7,14-9.53,21.24-6.29-.45-12.59-.73-18.94-.72-7.47.04-14.99.38-22.56,1.71-3.75.68-7.53,1.58-11.27,3.21,5.73-17.06,14.19-33.19,25.09-47.51,1.76-2.33,3.6-4.6,5.48-6.84Zm10.33-11.18c.15-.1.3-.19.46-.28,2.44-1.42,5.33-2.43,8.3-3.21,5.98-1.54,12.32-2.22,18.67-2.57,8.5-.44,17.07-.31,25.64.19-10.93,11.87-20.45,25.3-28.37,39.71-.07.15-.15.29-.23.44-2.23-1.31-4.45-2.66-6.63-4.05-5.34-3.44-10.53-7.17-14.96-11.45-2.19-2.15-4.21-4.45-5.63-6.89-1.45-2.44-2.12-4.95-1.55-6.93.07-.29.18-.58.31-.87,1.32-1.38,2.65-2.76,4-4.1Zm69.28-41.32c5.22-1.5,10.53-2.75,15.9-3.74-.13.3-.24.61-.32.93-.31,1.17-.29,2.38-.1,3.42.2,1.05.56,1.98.98,2.81.67,1.3,1.47,2.4,2.33,3.4-10.21,5.92-19.77,13.36-28.45,21.82-.59.58-1.17,1.2-1.76,1.8-10.15-.92-20.37-1.41-30.67-.97-5.33.26-10.69.73-16.05,1.77,6.77-5.59,13.96-10.66,21.53-15.11,11.5-6.78,23.81-12.22,36.6-16.14Zm136.04,241.83c1.54.9,3.09,1.82,4.61,2.79,5.45,3.46,10.75,7.22,15.44,11.7,2.32,2.26,4.51,4.7,6.17,7.5,1.64,2.75,2.77,6.11,1.93,9.36-.87,3.24-3.51,5.61-6.29,7.18-2.84,1.63-5.95,2.67-9.08,3.48-6.29,1.58-12.76,2.23-19.21,2.56-8.3.37-16.59.11-24.87-.5,11.93-12.62,22.12-27.14,30.57-42.68.24-.46.48-.93.73-1.4Zm-1.84,1.05c-8.64,15.75-19.22,30.32-31.44,42.88-3.94-.32-7.89-.7-11.81-1.15-12.2-1.45-24.3-3.49-36.31-5.95,2.77-4.92,5.41-9.95,7.94-15.05,7.07-14.28,13.18-29.21,18.65-44.39.18-.49.35-.98.52-1.47,8.21,2.88,16.35,5.95,24.39,9.32,9.86,4.23,19.6,8.81,28.91,14.18-.28.54-.55,1.08-.84,1.62Zm-129.98,77.62c-5.37-1.47-9.51-6.22-12.36-12.15-2.88-5.96-4.65-12.98-5.83-20.25-1.2-7.66-1.77-15.62-1.91-23.7,10.16,3.1,20.41,5.92,30.71,8.5,12.14,2.99,24.37,5.62,36.66,7.85-.57.93-1.12,1.87-1.7,2.78-4.11,6.57-8.49,12.86-13.25,18.56-4.75,5.68-9.9,10.83-15.46,14.45-2.77,1.81-5.64,3.2-8.51,3.92-2.86.75-5.74.79-8.35.04Zm10.98-51.43c-10.46-2.95-20.84-6.18-31.12-9.69.02-5.73.23-11.51.56-17.28.92-15.7,2.97-31.54,5.7-47.31.03-.12.05-.24.07-.37,14.15,2.38,28.23,5.33,42.18,8.77,16.26,4.06,32.39,8.72,48.23,14.22-5.68,15.68-12.13,30.96-19.52,45.6-2.63,5.24-5.42,10.34-8.36,15.31-12.69-2.65-25.28-5.78-37.75-9.26Zm-84.02-86.12c.31-7.05.95-14.11,1.9-21.13,5.96,2.72,11.98,5.26,18.04,7.71,12.15,4.81,24.46,9.15,36.87,13.13-.43,2.26-.85,4.51-1.25,6.77-9.72-1.84-19.51-3.39-29.36-4.56-8.69-.97-17.42-1.7-26.21-1.92Zm-44.61-65.29c.08-.31.17-.61.25-.92.9-1.69,3.02-3.27,5.53-4.37,2.99-1.35,6.4-2.22,9.85-2.86,6.96-1.27,14.2-1.67,21.42-1.75,5.61-.04,11.24.09,16.88.38-2.63,7.21-4.95,14.53-6.92,21.95-1.96,7.49-3.58,15.07-4.85,22.71-5.05-2.54-10.02-5.2-14.89-8.02-6.24-3.65-12.34-7.57-17.76-12.11-2.69-2.26-5.22-4.7-7.16-7.36-1.63-2.19-2.7-4.6-2.65-6.51.1-.38.19-.76.29-1.13Zm52.55,13.88c2.05-7.8,4.5-15.5,7.29-23.05,6.93.47,13.85,1.14,20.75,1.96,12.74,1.49,25.42,3.42,38.06,5.7-3.29,10.07-6.3,20.24-9.03,30.47-2.7,10.32-5.13,20.73-7.23,31.18-12.12-4.27-24.12-8.85-35.93-13.86-6.4-2.69-12.74-5.53-18.99-8.54,1.31-8.02,3-15.99,5.09-23.85Zm82.53-126.67c-1-1.09-1.9-2.26-2.54-3.52-.64-1.25-.91-2.56-.62-3.6.19-.78.73-1.54,1.49-2.19,10.95-1.73,22.15-2.36,33.47-1.83-5.49.98-10.93,2.47-16.25,4.4-5.24,1.92-10.36,4.26-15.34,6.95-.07-.07-.15-.14-.22-.22Zm126.35,24.01c.27,1,.37,2.05.1,3.11-.46,1.7-1.74,2.99-3.08,3.86-.82.54-1.69.96-2.58,1.32-2.67-4.38-5.6-8.57-8.81-12.5-3.95-4.85-8.32-9.3-13.06-13.24,9.8,4.95,18.96,10.82,27.43,17.46Zm16.85,102.42c.34-17.58-1.32-35.13-5.4-51.88,7.52,3.56,14.89,7.44,21.95,11.86,5.47,3.47,10.8,7.24,15.51,11.73,2.33,2.25,4.53,4.7,6.2,7.51,1.65,2.76,2.79,6.12,1.94,9.37-.87,3.24-3.51,5.6-6.31,7.18-2.85,1.62-5.96,2.66-9.09,3.46-6.32,1.58-12.81,2.23-19.28,2.55-1.86.08-3.72.12-5.57.14.01-.64.05-1.28.05-1.92Zm-1.13-.24c-.02.72-.05,1.44-.07,2.16-10.74.06-21.46-.78-32.12-1.98-8.68-1.04-17.29-2.39-25.88-3.95.11-.61.23-1.22.33-1.82,2.74-15.9,4.8-31.9,5.71-47.82.3-5.57.5-11.15.51-16.69,11.66,3.79,23.2,7.99,34.53,12.74,3.65,1.57,7.3,3.19,10.9,4.87,4.38,16.85,6.34,34.63,6.08,52.48Zm-163.05,16.75c2.73-10.38,5.77-20.67,9.08-30.85,14.63,2.73,29.18,5.94,43.63,9.54,16.41,4.12,32.72,8.72,48.83,13.94-2.15,10.8-4.66,21.56-7.43,32.22-2.87,10.71-6.03,21.36-9.51,31.88-16.58-3.41-33.02-7.48-49.33-11.98-14.34-4-28.58-8.41-42.65-13.25,2.16-10.57,4.61-21.08,7.38-31.5Zm54.05-23.93c-14.46-4.01-29.03-7.66-43.71-10.83.64-1.92,1.32-3.83,1.99-5.75,13.91,4.6,27.99,8.61,42.18,12.15,16.23,4,32.61,7.38,49.11,9.96-.56,3.17-1.16,6.34-1.78,9.5-15.75-5.55-31.71-10.54-47.79-15.03Zm-13.51-81.05c10.62,2.01,21.18,4.32,31.67,6.91,12.67,3.17,25.25,6.68,37.7,10.69.09,5.66,0,11.37-.3,17.12-.8,16.47-2.76,33.05-5.6,49.57-16.56-3.05-32.97-6.99-49.2-11.51-13.77-3.87-27.41-8.23-40.83-13.12.08-.22.16-.45.24-.67,5.42-15.05,11.45-29.83,18.41-43.95,2.52-5.1,5.15-10.13,7.91-15.05Zm33.39-46.73c1.47.27,2.96.55,4.44.86-2.54.86-5.02,2.11-7.41,3.65-5.94,3.85-11.31,9.21-16.23,15.04-1.78,2.12-3.5,4.34-5.17,6.61-2.03-.88-4.06-1.79-6.06-2.74-5.43-2.57-10.74-5.45-15.68-8.88-1.1-.77-2.17-1.58-3.21-2.41,4.14-2.28,8.39-4.3,12.73-5.98,8.21-3.21,16.73-5.3,25.28-6.01,3.77-.32,7.54-.35,11.3-.13Zm-17.37,22.48c4.61-5.75,9.62-10.98,15.06-14.74,2.71-1.86,5.53-3.33,8.37-4.15,2.83-.83,5.69-.96,8.34-.32,5.42,1.28,9.73,5.89,12.74,11.77,3.03,5.9,4.97,12.92,6.3,20.2.43,2.38.78,4.79,1.08,7.23-10.55-1.34-20.94-3.65-31.13-6.51-8.33-2.36-16.57-5.15-24.57-8.45,1.24-1.71,2.51-3.39,3.81-5.02Zm20.5,15.6c10.36,2.54,20.88,4.45,31.52,5.46.57,4.72.94,9.52,1.15,14.37.06,1.52.1,3.04.13,4.57-11.95-4.21-24.06-8.01-36.26-11.45-10.27-2.86-20.62-5.48-31.05-7.81,2.66-4.55,5.45-8.96,8.39-13.19,8.54,3.25,17.27,5.86,26.11,8.05Zm27.51,95.36c8.99,1.38,18.02,2.54,27.08,3.39,10.4,1,20.85,1.58,31.3,1.45-.28,9.56-1.17,19.12-2.63,28.62-7.44-3.68-15.01-7.08-22.65-10.3-11.5-4.86-23.16-9.33-34.92-13.49.64-3.22,1.25-6.45,1.83-9.68Zm42.78-56.03c-11.73-5.27-23.69-10.02-35.8-14.34-.02-6.53-.31-13-.94-19.36.8.07,1.6.15,2.42.21,6.08.45,12.21.56,18.33-.01,2.92-.28,5.83-.74,8.68-1.6,6.87,10.9,12.14,23.14,15.82,35.98.35,1.16.63,2.34.94,3.51-3.13-1.51-6.28-2.97-9.45-4.39Zm-35.96-65.01c7.23,4.7,13.79,10.61,19.54,17.39,3.18,3.75,6.11,7.77,8.78,11.99-2.88.86-5.82,1.28-8.75,1.54-6.1.5-12.17.2-18.19-.36-.76-.07-1.5-.17-2.26-.26-.28-2.7-.61-5.38-1.04-8.03-1.24-7.5-3.09-14.81-6.19-21.15-1.3-2.63-2.84-5.06-4.64-7.15,2.19.75,4.35,1.53,6.49,2.36,2.14,1.13,4.22,2.35,6.26,3.67Zm-90.01,1.57c1.54,1.35,3.15,2.58,4.8,3.71,5.18,3.53,10.68,6.32,16.25,8.85,1.73.76,3.48,1.49,5.23,2.19-2.26,3.17-4.44,6.45-6.53,9.79-.81,1.28-1.58,2.57-2.37,3.87-13.88-3-27.88-5.46-42.02-7.16-.8-.09-1.6-.17-2.39-.25,8.3-8.1,17.35-15.28,27.04-21Zm-25.45,26.35c13.63,1.29,27.2,3.23,40.7,5.68-2.52,4.35-4.94,8.79-7.24,13.32-7.43,14.64-13.9,29.91-19.59,45.53-9.43-3.52-18.74-7.32-27.91-11.45-7.67-3.44-15.24-7.13-22.56-11.18.04-.08.08-.16.12-.23,8.36-15.41,18.43-29.79,30.2-42.23,2.1.17,4.19.34,6.28.55Zm-16.06,58.81c9.28,3.89,18.69,7.41,28.17,10.65-.72,2.07-1.44,4.16-2.14,6.24-12.74-2.67-25.56-4.97-38.48-6.78-6.52-.86-13.06-1.63-19.62-2.22,2.57-6.48,5.41-12.84,8.53-19.03,7.69,4.09,15.57,7.73,23.54,11.13Zm11.8,88.81c14.32,4.49,28.77,8.5,43.29,12.15,16.2,4.04,32.51,7.57,48.93,10.52-1.06,3.15-2.14,6.27-3.26,9.39-15.53-5.9-31.35-11.02-47.36-15.53-14.11-3.92-28.36-7.41-42.76-10.27.38-2.09.75-4.18,1.16-6.26Zm114.98,42.81c-8.26-3.72-16.65-7.16-25.12-10.4,1.13-3.18,2.23-6.36,3.3-9.58,12.31,2.21,24.66,4.08,37.08,5.54,8.2.97,16.43,1.73,24.67,2.22-3.49,9.06-7.52,17.89-12.09,26.41-8.99-5.29-18.34-9.94-27.84-14.2Zm14.55-15.93c-11.96-1.67-23.85-3.77-35.67-6.19,3.44-10.52,6.58-21.15,9.39-31.85,2.83-10.64,5.34-21.38,7.52-32.15,11.47,3.73,22.84,7.78,34.07,12.22,8.01,3.25,15.96,6.67,23.76,10.39-1.32,8.55-3.07,17.03-5.26,25.41-2.23,8.42-4.94,16.73-8.04,24.86-8.62-.6-17.22-1.56-25.78-2.69Zm34.77-21.93c2.21-8.3,3.97-16.71,5.31-25.18,5.08,2.47,10.1,5.07,15.02,7.87,6.34,3.66,12.58,7.6,18.25,12.29,2.81,2.35,5.51,4.9,7.71,7.86,1.09,1.49,2.06,3.08,2.67,4.83.63,1.73.87,3.66.39,5.48-.48,1.81-1.64,3.36-3.03,4.57-1.4,1.21-3.03,2.12-4.72,2.88-3.37,1.49-6.98,2.36-10.59,3.02-7.25,1.28-14.6,1.63-21.94,1.69-5.66,0-11.32-.22-16.96-.59,3.04-8.08,5.69-16.33,7.88-24.7Zm50.11,8.34c-.62-1.76-1.59-3.36-2.67-4.86-2.2-2.99-4.9-5.55-7.71-7.92-5.68-4.74-11.92-8.73-18.28-12.44-5.26-3.04-10.64-5.89-16.08-8.59,1.53-9.67,2.45-19.41,2.77-29.15,2.23-.04,4.45-.1,6.68-.22,6.51-.36,13.05-1.05,19.39-2.67,3.16-.83,6.29-1.9,9.14-3.53,2.81-1.61,5.46-4,6.3-7.26.18-.66.26-1.32.29-1.99,6.51,25.43,7.09,52.72.54,79.86-.09-.42-.22-.83-.36-1.24Zm-2.36-86.07c-1.67-2.83-3.86-5.31-6.2-7.59-4.71-4.54-10.06-8.36-15.55-11.9-7.51-4.79-15.34-9.06-23.33-12.98-.37-1.5-.74-3.01-1.14-4.5-3.58-12.95-8.64-25.41-15.38-36.61.96-.38,1.89-.84,2.76-1.43,1.35-.89,2.63-2.2,3.08-3.93.27-1,.2-2.02-.02-2.99,26.67,21.14,46.17,50,55.98,82.28-.06-.12-.13-.24-.2-.36Zm-316.16,95.54c-1.43-2.44-2.1-4.96-1.53-6.93.49-1.97,2.31-3.84,4.76-5.25,2.43-1.41,5.31-2.43,8.27-3.21,5.96-1.55,12.28-2.23,18.59-2.59,2.38-.13,4.77-.2,7.15-.23,0,0,0,.01,0,.03-.21,16.51,1.43,32.97,5.11,48.75-7.51-3.74-14.84-7.77-21.84-12.26-5.32-3.44-10.48-7.15-14.9-11.43-2.18-2.14-4.19-4.46-5.61-6.88Zm42.77-18.24c8.53.06,17.09.58,25.62,1.39,9.83.93,19.64,2.19,29.41,3.74-2.74,16.29-4.62,32.64-5.4,48.93-.24,5.17-.32,10.32-.27,15.46-12.8-4.5-25.42-9.48-37.76-15.03-2.06-.93-4.1-1.87-6.14-2.84-4.11-16.63-5.8-34.12-5.46-51.65Zm83.66,134.3c2.61-.92,5.15-2.28,7.59-3.92,5.82-4,11.04-9.43,15.83-15.33,5.58-6.95,10.57-14.59,15.18-22.55,12.71,2.24,25.51,4.02,38.36,5.23,3.29.31,6.56.58,9.84.8-.5.5-.98,1.01-1.49,1.5-13.41,13.14-28.93,23.72-45.65,29.85-8.34,3.07-16.96,4.96-25.58,5.48-2.37.16-4.75.17-7.11.11-2.33-.34-4.65-.74-6.98-1.17Zm40.84-2.34c16.98-6.59,32.45-17.68,45.83-31.06.74-.74,1.44-1.5,2.16-2.25,9.02.54,18.07.69,27.08.23,6.48-.37,13-1.06,19.31-2.69,2.96-.79,5.9-1.8,8.61-3.29-32.24,29.79-75.73,46.33-120.95,44.12,6.08-1.09,12.1-2.8,17.95-5.07Zm107.89-55.99c-1.66-2.83-3.83-5.31-6.16-7.58-4.7-4.53-10.01-8.35-15.46-11.87-1.86-1.17-3.74-2.32-5.63-3.46,4.63-8.67,8.71-17.68,12.23-26.92,6.12.33,12.21.51,18.33.47,7.37-.08,14.77-.47,22.03-1.78,3.63-.68,7.24-1.57,10.63-3.09,1.68-.77,3.32-1.68,4.73-2.9.31-.28.61-.57.9-.88-7.86,26.72-21.93,50.05-40.22,68.83.21-.45.39-.91.51-1.4.88-3.25-.25-6.65-1.89-9.42Zm-260.16-20.67c-4.12-7.15-7.7-14.63-10.71-22.3,4.1,3.5,8.46,6.53,12.9,9.36,8.75,5.47,17.87,10.1,27.15,14.32.1.35.18.7.28,1.05,5.32,18.39,13.82,35.67,25.7,49.66,3.68,4.34,7.7,8.33,12.01,11.9-16.62-8.41-31.41-19.42-43.99-32.4-8.99-9.59-16.84-20.21-23.35-31.59Z"/>
  <path class="cls-1" d="m439.42,141.04c-90-23.78-182.65,30.37-206.51,120.71-23.86,90.34,29.95,183.18,119.96,206.96,90.01,23.78,182.65-30.38,206.51-120.72,23.87-90.34-29.94-183.18-119.95-206.95Z"/>
  <rect class="cls-5" x="185.68" y="264.66" width="420.77" height="83.82"/>
  <g>
    <path class="cls-4" d="m209.31,282.87h-10.04v-6.38h27.35v6.38h-10.04v25.08h-7.26v-25.08Z"/>
    <path class="cls-4" d="m229.3,292.31v-.09c0-8.94,7.4-16.27,17.59-16.27s17.49,7.23,17.49,16.18v.09c0,8.94-7.4,16.27-17.59,16.27s-17.49-7.24-17.49-16.18Zm27.49,0v-.09c0-5.39-4.15-9.89-10-9.89s-9.9,4.4-9.9,9.8v.09c0,5.39,4.15,9.89,10,9.89s9.9-4.4,9.9-9.8Z"/>
    <path class="cls-4" d="m280.03,276.27h6.7l14.15,31.68h-7.59l-3.02-7.06h-13.96l-3.02,7.06h-7.4l14.14-31.68Zm7.64,18.51l-4.38-10.2-4.38,10.2h8.77Z"/>
    <path class="cls-4" d="m303.23,303.36l4.29-4.9c2.97,2.34,6.08,3.82,9.85,3.82,2.97,0,4.76-1.12,4.76-2.97v-.09c0-1.75-1.13-2.65-6.65-4-6.65-1.62-10.94-3.37-10.94-9.62v-.09c0-5.71,4.81-9.48,11.55-9.48,4.81,0,8.91,1.44,12.26,4l-3.77,5.21c-2.92-1.93-5.8-3.1-8.58-3.1s-4.24,1.21-4.24,2.74v.09c0,2.07,1.41,2.74,7.12,4.13,6.7,1.66,10.47,3.95,10.47,9.44v.09c0,6.25-5,9.75-12.12,9.75-5,0-10.04-1.66-14-5.03Z"/>
    <path class="cls-4" d="m342.65,282.87h-10.04v-6.38h27.35v6.38h-10.04v25.08h-7.26v-25.08Z"/>
    <path class="cls-4" d="m365.51,276.49h7.83l8.68,13.3,8.68-13.3h7.83v31.46h-7.21v-20.54l-9.29,13.44h-.19l-9.19-13.3v20.4h-7.12v-31.46Z"/>
    <path class="cls-4" d="m417.75,276.27h6.7l14.14,31.68h-7.59l-3.02-7.06h-13.96l-3.02,7.06h-7.4l14.14-31.68Zm7.64,18.51l-4.38-10.2-4.39,10.2h8.77Z"/>
    <path class="cls-4" d="m440.95,303.36l4.29-4.9c2.97,2.34,6.08,3.82,9.85,3.82,2.97,0,4.76-1.12,4.76-2.97v-.09c0-1.75-1.13-2.65-6.65-4-6.65-1.62-10.94-3.37-10.94-9.62v-.09c0-5.71,4.81-9.48,11.55-9.48,4.81,0,8.91,1.44,12.26,4l-3.77,5.21c-2.92-1.93-5.8-3.1-8.58-3.1s-4.24,1.21-4.24,2.74v.09c0,2.07,1.41,2.74,7.12,4.13,6.69,1.66,10.47,3.95,10.47,9.44v.09c0,6.25-5,9.75-12.12,9.75-5,0-10.04-1.66-14-5.03Z"/>
    <path class="cls-4" d="m480.37,282.87h-10.04v-6.38h27.35v6.38h-10.04v25.08h-7.26v-25.08Z"/>
    <path class="cls-4" d="m503.24,276.49h24.89v6.16h-17.68v6.38h15.56v6.16h-15.56v6.61h17.92v6.16h-25.13v-31.46Z"/>
    <path class="cls-4" d="m534.83,276.49h15.09c4.2,0,7.45,1.12,9.62,3.19,1.84,1.75,2.83,4.22,2.83,7.19v.09c0,5.08-2.88,8.27-7.07,9.75l8.06,11.23h-8.49l-7.07-10.07h-5.7v10.07h-7.26v-31.46Zm14.62,15.28c3.54,0,5.56-1.8,5.56-4.45v-.09c0-2.97-2.17-4.49-5.71-4.49h-7.21v9.03h7.36Z"/>
    <path class="cls-4" d="m566.65,303.36l4.29-4.9c2.97,2.34,6.08,3.82,9.85,3.82,2.97,0,4.76-1.12,4.76-2.97v-.09c0-1.75-1.13-2.65-6.65-4-6.65-1.62-10.94-3.37-10.94-9.62v-.09c0-5.71,4.81-9.48,11.55-9.48,4.81,0,8.91,1.44,12.26,4l-3.77,5.21c-2.92-1.93-5.8-3.1-8.58-3.1s-4.24,1.21-4.24,2.74v.09c0,2.07,1.41,2.74,7.12,4.13,6.7,1.66,10.47,3.95,10.47,9.44v.09c0,6.25-5,9.75-12.12,9.75-5,0-10.04-1.66-14-5.03Z"/>
  </g>
  <path class="cls-3" d="m543.28,318.05h0c0-1.15.92-2.11,2.09-2.11s2.09.95,2.09,2.09h0c0,1.15-.92,2.11-2.09,2.11s-2.09-.95-2.09-2.09Zm3.93-.01h0c0-1.03-.79-1.87-1.85-1.87s-1.85.85-1.85,1.87h0c0,1.03.79,1.87,1.85,1.87s1.85-.85,1.85-1.87Zm-2.66-1.1h.96c.47,0,.82.23.82.67,0,.35-.2.56-.49.65l.56.8h-.49l-.5-.73h-.44v.73h-.41v-2.12Zm.92,1.06c.28,0,.43-.14.43-.35,0-.23-.16-.35-.43-.35h-.52v.7h.52Z"/>
  <g>
    <path class="cls-3" d="m243.79,315.61h2.35l-.07,20.62h-2.29v-20.62Z"/>
    <path class="cls-3" d="m256.71,315.61h2.21l13,16.48v-16.48h2.27v20.62h-1.82l-13.34-16.88-.06,16.88h-2.23l-.02-20.62Z"/>
    <path class="cls-3" d="m290.04,317.78h-6.91v-2.16h16.22v2.14h-6.93v18.48h-2.36l-.02-18.47Z"/>
    <path class="cls-3" d="m308.3,315.54h14.92v2.12h-12.56l-.02,7.02,11.27.03-.02,2.11-11.25.02.02,7.2,12.7.05v2.08s-15.06,0-15.06,0v-20.62Z"/>
    <path class="cls-3" d="m332.63,315.61h8.25c3.11,0,5.2.67,6.57,2.11.62.65,1.52,2.35,1.52,3.83h0c0,3.45-1.97,5.59-5.57,6.26l6.33,8.43h-2.88s-6-8-6-8h-5.86l-.03,8h-2.32v-20.62Zm8.1,10.55c4.43.01,5.87-2.02,5.92-4.52h0c-.3-2.04-1.22-3.91-5.82-3.91l-5.88.04v8.35s5.78.04,5.78.04Z"/>
    <path class="cls-3" d="m358.53,315.61h2.22l12.99,16.55v-16.55s2.27,0,2.27,0v20.62s-1.87,0-1.87,0l-13.29-16.88-.02,16.88h-2.28l-.03-20.62Z"/>
    <path class="cls-3" d="m394.07,315.46h2.18l9.4,20.77h-2.5l-2.38-5.42-11.26-.02-2.45,5.44h-2.4l9.41-20.77Zm5.74,13.2l-4.67-10.48-4.72,10.48h9.39Z"/>
    <path class="cls-3" d="m417.09,317.75l-6.91.02v-2.16h16.22v2.16h-6.93l-.02,18.46h-2.34l-.02-18.48Z"/>
    <path class="cls-3" d="m435.56,315.61h2.33v20.62h-2.33v-20.62Z"/>
    <path class="cls-3" d="m447.61,325.98v-.06c0-5.63,4.29-10.66,10.36-10.67,6.65,0,10.67,4.97,10.67,10.59h0c.23,6.16-5.51,12.22-13.2,10.46-4.23-.97-7.73-5.05-7.82-10.33Zm18.63-.04v-.06c0-5.1-3.83-8.53-8.11-8.49-5.11.05-8.09,4.01-8.1,8.47v.06c.02,4.88,3.26,7.53,5.89,8.25,5.65,1.56,10.53-3.01,10.32-8.23Z"/>
    <path class="cls-3" d="m478.15,315.61h2.19l12.99,16.53v-16.53h2.3v20.62h-1.88l-13.31-16.89-.02,16.89h-2.27v-20.62Z"/>
    <path class="cls-3" d="m513.69,315.46h2.18l9.41,20.77h-2.51l-2.45-5.45-11.19.02-2.47,5.44h-2.37l9.41-20.77Zm5.73,13.18l-4.7-10.47-4.69,10.5,9.39-.03Z"/>
    <path class="cls-3" d="m533.92,315.61h2.33v18.48s11.63.02,11.63.02l-.02,2.12h-13.95v-20.62Z"/>
  </g>
</svg>