<?xml version="1.0" encoding="UTF-8"?>
<svg id="Layer_1" data-name="Layer 1" xmlns="http://www.w3.org/2000/svg" viewBox="0 0 792 612">
  <defs>
    <style>
      .cls-1, .cls-2 {
        fill: none;
      }

      .cls-1, .cls-3 {
        stroke-width: 0px;
      }

      .cls-2 {
        stroke: #fff;
        stroke-width: 4px;
      }

      .cls-3 {
        fill: #fff;
      }
    </style>
  </defs>
  <g>
    <path class="cls-2" d="m613.1,239.02h-43.77c-21.61-78.03-92.62-132.06-173.59-132.07-82.84,0-152.55,55.93-173.58,132.07h-43.26v97h43.54c21.35,75.65,90.83,131.11,173.3,131.11,80.58,0,151.36-53.53,173.32-131.06h44l.04-97.05Z"/>
    <path class="cls-1" d="m565.09,286.07c0,93.52-75.82,169.34-169.34,169.34s-169.34-75.82-169.34-169.34c0-93.52,75.81-169.33,169.33-169.34,93.53,0,169.34,75.81,169.35,169.34Z"/>
    <path class="cls-3" d="m606.26,245.65h-42.8c-14.79-61.8-62.32-110.49-123.75-126.76-92-24.31-186.63,30.77-210.94,122.78-.35,1.32-.68,2.65-1,4h-42.28v83.82h43.23c15.79,60.16,62.72,107.17,122.84,123.09,92,24.31,186.64-30.77,210.94-122.78l.09-.37h43.67v-83.78Zm-275.89,138.52c-12.8-4.5-25.42-9.48-37.76-15-2.06-.93-4.1-1.87-6.14-2.84-2.94-12.08-4.69-24.42-5.24-36.84h53.29c-1.92,13.08-3.26,26.18-3.88,39.25-.25,5.15-.34,10.3-.27,15.43Zm131.35-180.43c.3-5.57.5-11.15.51-16.69,11.66,3.79,23.2,8,34.53,12.74,3.65,1.57,7.3,3.19,10.9,4.87,3.43,13.42,5.42,27.16,5.92,41h-56.58c2.29-13.88,3.86-27.88,4.72-41.92Zm-.41-37.84c.8.07,1.6.15,2.42.21,6.1.51,12.23.51,18.33,0,2.94-.24,5.85-.78,8.68-1.6,6.94,11.19,12.27,23.31,15.82,36,.35,1.16.63,2.34.94,3.51-3.13-1.51-6.28-2.97-9.45-4.39-11.73-5.27-23.69-10-35.8-14.34-.03-6.56-.35-13.02-.94-19.39Zm-72.83,79.74c-9.11-2.33-18.25-4.53-27.45-6.51.64-1.92,1.32-3.83,2-5.75,13.91,4.6,28,8.6,42.18,12.15l.43.1h-17.16Zm-15.56,0h-14c.28-.87.54-1.74.83-2.6,4.42.83,8.8,1.7,13.15,2.61h.02Zm44.44,83.82c5.72,1.17,11.46,2.3,17.21,3.33-1.06,3.15-2.14,6.27-3.26,9.39-12.41-4.71-25-8.92-37.72-12.73h23.77Zm12.42,0h5.88c-.13.39-.25.78-.37,1.16l-5.51-1.16Zm30.52-125.82c-.72,14.07-2.18,28.09-4.37,42h-35.56c-4.97-1.26-9.92-2.57-14.86-3.94-13.74-3.87-27.35-8.24-40.82-13.12l.24-.67c5.31-14.98,11.46-29.65,18.41-43.95,2.52-5.1,5.15-10.13,7.91-15,10.62,2,21.18,4.3,31.67,6.91,12.67,3.17,25.25,6.68,37.7,10.69.07,5.63-.03,11.32-.31,17.08h-.01Zm-36-30.41c-10.27-2.86-20.6-5.46-31-7.81,2.66-4.55,5.45-9,8.39-13.19,8.53,3.19,17.25,5.86,26.11,8,10.36,2.58,20.9,4.4,31.52,5.46.57,4.72.94,9.52,1.15,14.37.06,1.52.1,3,.13,4.57-11.97-4.19-24.07-7.99-36.29-11.4h-.01Zm-32.49-12.53c-.81,1.28-1.58,2.57-2.37,3.87-13.88-3-27.88-5.46-42-7.16l-2.39-.25c8.13-8.05,17.2-15.1,27-21,1.53,1.33,3.13,2.57,4.8,3.71,5.15,3.41,10.59,6.37,16.25,8.85,1.73.76,3.48,1.49,5.23,2.19-2.24,3.18-4.43,6.46-6.52,9.79Zm-45.2,1.81c13.63,1.29,27.2,3.23,40.7,5.68-2.52,4.35-4.93,8.79-7.24,13.32-7.44,14.77-13.98,29.97-19.59,45.53-9.43-3.53-18.74-7.34-27.91-11.45-7.67-3.44-15.24-7.13-22.56-11.18l.12-.23c8.19-15.33,18.35-29.52,30.2-42.23,2.1.18,4.2.36,6.28.56Zm-16.06,58.81c9.28,3.89,18.69,7.41,28.17,10.65-.72,2.07-1.43,4.15-2.14,6.24-12.74-2.67-25.56-5-38.48-6.78-6.52-.86-13.06-1.63-19.62-2.22,2.57-6.48,5.41-12.81,8.53-19,7.69,4.06,15.57,7.7,23.54,11.11h0Zm-13.36,15.21c12.74,1.49,25.42,3.42,38.06,5.7-.37,1.14-.73,2.28-1.09,3.42h-61.52c1.19-3.72,2.45-7.41,3.8-11.08,6.93.47,13.85,1.14,20.75,1.96h0Zm17.47,131.65c.75-12.86,2.27-25.8,4.29-38.72h44.38c16,4,31.9,8.62,47.51,14-5.59,15.58-12.11,30.8-19.52,45.6-2.63,5.24-5.41,10.34-8.36,15.31-12.69-2.65-25.28-5.78-37.75-9.26-10.46-2.95-20.83-6.18-31.12-9.69.03-5.69.24-11.47.57-17.24Zm77.93,21.51c7.05-14.43,13.28-29.25,18.65-44.39.18-.49.35-1,.52-1.47,8.21,2.88,16.35,5.95,24.39,9.32,9.91,4.15,19.56,8.89,28.91,14.18-.28.54-.55,1.08-.84,1.62-8.51,15.64-19.08,30.06-31.44,42.88-3.94-.32-7.89-.7-11.81-1.15-12.2-1.45-24.3-3.49-36.31-5.95,2.76-4.91,5.4-9.94,7.93-15.04h0Zm44.74-36.75c-8.26-3.72-16.65-7.16-25.12-10.4,1.13-3.17,2.23-6.37,3.3-9.58,12.31,2.21,24.66,4.08,37.08,5.54,8.2,1,16.43,1.73,24.67,2.22-3.48,9.05-7.52,17.87-12.09,26.41-9.01-5.24-18.31-9.98-27.84-14.19h0Zm14.57-15.94c-12-1.67-23.85-3.77-35.67-6.19.15-.45.29-.9.43-1.35h64.65c-1.15,3.44-2.35,6.85-3.63,10.23-8.64-.59-17.24-1.56-25.78-2.69Zm84.9-91.36h-.28c0-.28.06-.57.07-.85.06.28.12.57.19.86h.02Zm-1.64,0h-40.37c-.39-13.53-2.17-26.98-5.31-40.14,7.56,3.52,14.9,7.48,22,11.86,5.51,3.4,10.67,7.33,15.42,11.74,2.39,2.22,4.47,4.74,6.2,7.51,1.64,2.66,2.74,5.89,2.04,9.04h.02Zm-.54-7.94l-.2-.36c-1.72-2.79-3.81-5.35-6.2-7.59-4.78-4.46-9.99-8.45-15.55-11.9-7.53-4.76-15.32-9.1-23.33-13-.37-1.5-.74-3-1.14-4.5-3.46-12.83-8.64-25.13-15.41-36.57.97-.37,1.89-.85,2.76-1.43,1.47-.89,2.57-2.29,3.08-3.93.25-.98.25-2.02,0-3,26.58,21.11,46.1,49.82,55.97,82.29h.02Zm-56.59-82.73c.31,1.01.34,2.08.1,3.11-.52,1.62-1.61,3-3.08,3.86-.82.52-1.68.96-2.58,1.32-2.65-4.36-5.59-8.54-8.81-12.5-3.92-4.83-8.29-9.26-13.06-13.25,9.7,4.9,18.88,10.75,27.43,17.46Zm-42.21-24c2.14,1.13,4.22,2.35,6.26,3.67,7.32,4.82,13.91,10.68,19.54,17.39,3.2,3.79,6.13,7.8,8.78,12-2.86.81-5.79,1.32-8.75,1.54-6.06.41-12.15.29-18.19-.36-.76-.07-1.5-.17-2.26-.26-.28-2.7-.61-5.38-1-8-1.24-7.5-3.09-14.81-6.19-21.15-1.25-2.6-2.82-5.02-4.68-7.22,2.19.73,4.35,1.51,6.49,2.35v.04Zm-16.79-5.46c5.42,1.28,9.73,5.89,12.74,11.77s5,12.92,6.3,20.2c.43,2.38.78,4.79,1.08,7.23-10.52-1.4-20.93-3.58-31.13-6.51-8.34-2.34-16.55-5.17-24.57-8.45,1.24-1.71,2.51-3.39,3.81-5,4.61-5.75,9.62-11,15.06-14.74,2.55-1.82,5.38-3.22,8.37-4.15,2.7-.86,5.57-1,8.34-.4v.05Zm-14.4-3.27c1.47.27,3,.55,4.44.86-2.61.91-5.1,2.13-7.41,3.65-5.94,3.86-11.31,9.21-16.23,15-1.78,2.12-3.5,4.34-5.17,6.61-2-.88-4.06-1.79-6.06-2.74-5.46-2.53-10.71-5.5-15.68-8.88-1.1-.77-2.17-1.58-3.21-2.41,4.11-2.28,8.36-4.29,12.73-6,8.09-3.21,16.61-5.24,25.28-6,3.76-.32,7.54-.37,11.31-.14v.05Zm-56.11,1.65c.26-.86.78-1.63,1.49-2.19,11.07-1.75,22.28-2.36,33.47-1.83-5.53,1-10.97,2.47-16.25,4.4-5.27,1.93-10.39,4.23-15.33,6.9l-.22-.22c-1-1.05-1.86-2.24-2.54-3.52-.64-1.08-.86-2.36-.62-3.59v.05Zm-55.11,18.33c11.52-6.8,23.81-12.21,36.6-16.14,5.22-1.5,10.52-2.75,15.9-3.74-.13.3-.23.61-.32.93-.28,1.12-.32,2.29-.1,3.42.2.98.54,1.92,1,2.81.64,1.22,1.42,2.36,2.33,3.4-10.35,6.07-19.9,13.4-28.45,21.82-.59.58-1.17,1.2-1.76,1.8-10.2-1-20.46-1.31-30.71-.94-5.37.21-10.72.8-16,1.77,6.76-5.61,13.95-10.66,21.51-15.13Zm-37,30.15c.08-.3.18-.59.31-.87,1.32-1.38,2.65-2.76,4-4.1l.46-.28c2.61-1.43,5.4-2.51,8.3-3.21,6.12-1.46,12.38-2.32,18.67-2.57,8.54-.4,17.1-.34,25.64.19-11.02,12.05-20.54,25.38-28.37,39.71l-.23.44c-2.23-1.33-4.44-2.67-6.63-4-5.36-3.32-10.38-7.16-15-11.45-2.17-2.04-4.06-4.36-5.63-6.89-1.4-2.49-2.03-5-1.5-6.98h-.02Zm-11.51,13.04c1.76-2.33,3.59-4.61,5.48-6.84.48,1.57,1.16,3.07,2,4.48,1.88,3.03,4.16,5.79,6.77,8.21,4.95,4.57,10.34,8.65,16.09,12.17,2.26,1.41,4.55,2.76,6.86,4.06-3.52,6.91-6.7,13.99-9.53,21.24-6.29-.45-12.59-.73-18.94-.72-7.55-.07-15.1.51-22.56,1.71-3.87.63-7.65,1.7-11.27,3.21,5.72-17.1,14.2-33.15,25.1-47.52Zm-28.6,59.46c.1-.38.19-.76.29-1.13s.17-.61.25-.92c.9-1.69,3-3.27,5.53-4.37,3.16-1.34,6.47-2.31,9.86-2.87,7.08-1.18,14.24-1.77,21.42-1.75,5.61,0,11.24.09,16.88.38-1.38,3.78-2.67,7.59-3.87,11.43h-50.32c-.03-.26-.04-.51-.04-.77Zm.48,84.59h39c.61,11.45,2.21,22.83,4.78,34-7.5-3.69-14.79-7.78-21.84-12.26-5.33-3.32-10.32-7.14-14.9-11.43-2.16-2.04-4.04-4.35-5.61-6.88-.63-1.07-1.11-2.23-1.43-3.43h0Zm39.82,72.12c-8.98-9.59-16.82-20.19-23.35-31.59-4.12-7.16-7.7-14.61-10.71-22.3,4.08,3.42,8.39,6.55,12.9,9.36,8.72,5.37,17.79,10.15,27.15,14.32.1.35.18.7.28,1.05,5.32,18.39,13.82,35.67,25.7,49.66,3.64,4.31,7.66,8.29,12,11.9-16.36-8.28-31.22-19.23-43.97-32.4Zm63.3,40.65c-3.33-1.65-6.54-3.54-9.6-5.65-7.15-4.96-13.55-10.92-19-17.71-10.4-12.81-17.85-28.4-22.77-44.95l2,.88c13.09,5.49,26.44,10.26,39.93,14.49,0,1.09.05,2.18.1,3.27.29,7.78,1.12,15.54,2.48,23.21,1.39,7.51,3.42,14.82,6.67,21.1,1.27,2.47,2.83,4.77,4.66,6.86-1.49-.47-2.98-.97-4.47-1.5Zm14.34,4.35c-5.37-1.47-9.51-6.22-12.36-12.15s-4.65-13-5.83-20.25c-1.18-7.85-1.82-15.77-1.91-23.7,10.17,3.1,20.4,5.93,30.71,8.5,12.14,2.99,24.36,5.6,36.66,7.85-.57.93-1.12,1.87-1.7,2.78-3.99,6.48-8.42,12.68-13.25,18.56-4.75,5.68-9.9,10.83-15.46,14.45-2.6,1.77-5.48,3.09-8.51,3.92-2.73.76-5.61.78-8.35.04Zm17.41,3.54c-2.33-.34-4.65-.74-7-1.17,2.69-.98,5.24-2.3,7.59-3.92,5.82-4,11-9.43,15.83-15.33,5.62-7.12,10.7-14.66,15.18-22.55,12.71,2.24,25.51,4,38.36,5.23,3.29.31,6.57.58,9.84.8-.5.5-1,1-1.49,1.5-13.41,13.14-28.93,23.72-45.65,29.85-8.21,3.06-16.83,4.91-25.58,5.48-2.34.16-4.72.18-7.08.11Zm15.91,1.56c6.15-1.11,12.18-2.8,18-5.07,17-6.59,32.45-17.68,45.83-31.06.74-.74,1.44-1.5,2.16-2.25,9.02.58,18.06.66,27.08.23,6.5-.26,12.95-1.16,19.27-2.68,2.99-.75,5.88-1.85,8.61-3.29-32.77,30.32-76.35,46.21-120.95,44.11h0Zm126.64-52.42c-.87,3.24-3.51,5.61-6.29,7.18-2.86,1.56-5.91,2.73-9.08,3.48-6.3,1.48-12.74,2.33-19.21,2.56-8.29.32-16.6.16-24.87-.5,11.99-12.85,22.27-27.19,30.57-42.68.24-.46.48-.93.73-1.4,1.54.9,3.09,1.82,4.61,2.79,5.52,3.38,10.69,7.3,15.44,11.7,2.38,2.22,4.45,4.74,6.17,7.5,1.63,2.76,2.78,6.13,1.93,9.37Zm.58,2.18c.21-.45.38-.92.51-1.4.88-3.25-.25-6.65-1.89-9.42-1.71-2.79-3.78-5.34-6.16-7.58-4.76-4.45-9.93-8.42-15.46-11.87-1.86-1.17-3.74-2.32-5.63-3.46,4.64-8.71,8.72-17.7,12.23-26.92,6.12.33,12.21.51,18.33.47,7.37.02,14.73-.58,22-1.78,3.65-.61,7.22-1.65,10.63-3.09,1.71-.74,3.3-1.71,4.73-2.9.31-.28.61-.57.9-.88-7.57,25.88-21.37,49.51-40.19,68.83h0Zm38.2-68.66c-1.43,1.18-3.02,2.15-4.72,2.88-3.4,1.41-6.95,2.42-10.59,3-7.25,1.17-14.59,1.74-21.94,1.69-5.66,0-11.32-.22-17-.59,1.28-3.41,2.48-6.85,3.62-10.32h53.17c-.6,1.28-1.47,2.42-2.54,3.34h0Zm-344.34-69.2h-10v-6.38h27.26v6.38h-10v25.08h-7.26v-25.08Zm20,9.44v-.09c0-8.94,7.4-16.27,17.59-16.27s17.49,7.23,17.49,16.18v.09c0,8.94-7.4,16.27-17.59,16.27s-17.5-7.2-17.5-16.14v-.04Zm27.49,0v-.09c.06-5.4-4.27-9.83-9.67-9.89-.11,0-.22,0-.33,0-5.32-.15-9.75,4.04-9.9,9.35,0,.15,0,.3,0,.45v.09c-.06,5.4,4.27,9.83,9.67,9.89.11,0,.22,0,.33,0,5.32.14,9.74-4.05,9.89-9.37,0-.13,0-.26,0-.39v-.04Zm23.24-16h6.7l14.15,31.68h-7.59l-3-7.06h-14l-3,7.06h-7.4l14.14-31.68Zm7.64,18.51l-4.38-10.2-4.38,10.2h8.76Zm15.56,8.58l4.29-4.9c3,2.34,6.08,3.82,9.85,3.82,3,0,4.76-1.12,4.76-3v-.09c0-1.75-1.13-2.65-6.65-4-6.65-1.58-10.92-3.36-10.92-9.58v-.09c0-5.71,4.81-9.48,11.55-9.48,4.42-.08,8.74,1.33,12.26,4l-3.81,5.21c-2.92-1.93-5.8-3.1-8.58-3.1s-4.24,1.21-4.24,2.74v.09c0,2.07,1.41,2.74,7.12,4.13,6.7,1.66,10.47,4,10.47,9.44v.09c0,6.25-5,9.75-12.12,9.75-5.11.03-10.07-1.75-13.99-5.03h0Zm39.41-20.53h-10.08v-6.38h27.35v6.38h-10v25.08h-7.26v-25.08Zm22.87-6.38h7.83l8.68,13.3,8.68-13.3h7.83v31.46h-7.21v-20.5l-9.31,13.42h-.19l-9.19-13.3v20.4h-7.12v-31.48Zm52.24-.22h6.7l14.11,31.71h-7.59l-3-7.06h-14l-3,7.06h-7.41l14.19-31.71Zm7.64,18.51l-4.38-10.2-4.39,10.2h8.77Zm15.56,8.58l4.29-4.9c2.74,2.38,6.22,3.74,9.85,3.82,3,0,4.76-1.12,4.76-3v-.09c0-1.75-1.13-2.65-6.65-4-6.65-1.62-10.94-3.37-10.94-9.62v-.09c0-5.71,4.81-9.48,11.55-9.48,4.42-.08,8.74,1.33,12.26,4l-3.77,5.21c-2.92-1.93-5.8-3.1-8.58-3.1s-4.24,1.21-4.24,2.74v.09c0,2.07,1.41,2.74,7.12,4.13,6.69,1.66,10.47,4,10.47,9.44v.09c0,6.25-5,9.75-12.12,9.75-5.11.06-10.07-1.7-14.01-4.95v-.04Zm39.41-20.49h-10v-6.38h27.3v6.38h-10v25.08h-7.3v-25.08Zm22.87-6.38h24.89v6.16h-17.68v6.38h15.56v6.16h-15.56v6.68h17.92v6.16h-25.13v-31.54Zm31.59,0h15.09c4.2,0,7.45,1.12,9.62,3.19,1.91,1.9,2.93,4.5,2.83,7.19v.09c0,5.08-2.88,8.27-7.07,9.75l8.06,11.23h-8.49l-7.08-10.07h-5.71v10.07h-7.26v-31.45Zm14.62,15.28c3.54,0,5.56-1.8,5.56-4.45v-.09c0-3-2.17-4.49-5.71-4.49h-7.21v9l7.36.03Zm17.21,11.59l4.29-4.9c2.74,2.38,6.22,3.74,9.85,3.82,3,0,4.76-1.12,4.76-3v-.09c0-1.75-1.13-2.65-6.65-4-6.65-1.62-10.94-3.37-10.94-9.62v-.09c0-5.71,4.81-9.48,11.55-9.48,4.42-.08,8.74,1.33,12.26,4l-3.77,5.21c-2.92-1.93-5.8-3.1-8.58-3.1s-4.24,1.21-4.24,2.74v.09c0,2.07,1.41,2.74,7.12,4.13,6.7,1.66,10.47,4,10.47,9.44v.09c0,6.25-5,9.75-12.12,9.75-5.11.06-10.07-1.7-14.01-4.95v-.04Zm-22.9,14.92h0c-.08-1.15.79-2.15,1.94-2.23s2.15.79,2.23,1.94c0,.1,0,.19,0,.29h0c.08,1.15-.79,2.15-1.94,2.23s-2.15-.79-2.23-1.94c0-.1,0-.19,0-.29Zm3.93,0h0c.08-1.02-.69-1.91-1.71-1.98-1.02-.08-1.91.69-1.98,1.71,0,.09,0,.18,0,.27h0c-.08,1.02.69,1.91,1.71,1.98,1.02.08,1.91-.69,1.98-1.71,0-.09,0-.18,0-.27Zm-2.66-1.1h1c.47,0,.82.23.82.67.01.31-.19.58-.49.65l.56.8h-.49l-.5-.73h-.44v.73h-.41l-.05-2.12Zm.92,1.06c.28,0,.43-.14.43-.35s-.16-.35-.43-.35h-.52v.7h.52Zm-301.69-2.37h2.31v20.63h-2.32v-20.63Zm12.93,0h2.21l13,16.48v-16.48h2.27v20.63h-1.82l-13.35-16.87-.06,16.88h-2.22l-.03-20.64Zm33.38,2.18h-7v-2.18h16.22v2.14h-6.92v18.48h-2.3v-18.44Zm18.26-2.24h14.92v2.13h-12.62v7h11.27v2.11h-11.25v7.2h12.7v2.08h-15.07l.05-20.52Zm24.33.07h8.25c3.11,0,5.2.67,6.57,2.11.91,1.08,1.44,2.42,1.52,3.83h0c0,3.45-2,5.59-5.57,6.26l6.33,8.43h-2.88l-6-8h-5.91v8h-2.32v-20.63Zm8.1,10.55c4.43,0,5.87-2,5.92-4.52h0c-.3-2-1.22-3.91-5.82-3.91h-5.88v8.35l5.78.08Zm17.75-10.56h2.22l13,16.55v-16.55h2.27v20.63h-1.87l-13.29-16.87v16.88h-2.28l-.05-20.64Zm35.54-.15h2.18l9.4,20.77h-2.5l-2.38-5.42h-11.26l-2.42,5.43h-2.4l9.38-20.78Zm5.74,13.2l-4.72-10.46-4.72,10.48,9.44-.02Zm17.28-10.9h-6.91v-2.15h16.22v2.16h-6.93v18.46h-2.38v-18.47Zm18.47-2.15h2.33v20.63h-2.33v-20.63Zm12,10.37v-.06c-.12-5.78,4.47-10.55,10.25-10.67.04,0,.08,0,.11,0,5.68-.21,10.46,4.23,10.67,9.92,0,.22,0,.45,0,.67h0c.39,5.8-3.99,10.81-9.79,11.21-5.8.39-10.81-3.99-11.21-9.79-.03-.43-.03-.86,0-1.29h-.03Zm18.63,0v-.06c.19-4.5-3.31-8.3-7.8-8.48-.1,0-.2,0-.31,0-5.11.05-8.09,4-8.1,8.47v.06c-.14,3.77,2.28,7.16,5.89,8.25,4.34,1.22,8.85-1.31,10.08-5.66.24-.85.34-1.73.29-2.6l-.05.03Zm11.96-10.37h2.19l13,16.53v-16.53h2.29v20.63h-1.88l-13.31-16.89v16.89h-2.27l-.02-20.63Zm35.54-.15h2.18l9.41,20.77h-2.51l-2.45-5.45h-11.19l-2.47,5.44h-2.37l9.4-20.76Zm5.73,13.15l-4.7-10.47-4.69,10.5,9.39-.03Zm14.5-13h2.33v18.48h11.64v2.13h-13.97v-20.61Z"/>
  </g>
  <g>
    <path class="cls-3" d="m194.31,505.35h5.54l3.1,11.7,3.64-11.77h4.72l3.67,11.81,3.17-11.74h5.44l-6.01,19.44h-4.93l-3.71-11.84-3.78,11.84h-4.9l-5.94-19.44Z"/>
    <path class="cls-3" d="m224.95,505.35h5.54l3.1,11.7,3.64-11.77h4.72l3.67,11.81,3.17-11.74h5.44l-6.01,19.44h-4.93l-3.71-11.84-3.78,11.84h-4.9l-5.94-19.44Z"/>
    <path class="cls-3" d="m255.58,505.35h5.54l3.1,11.7,3.64-11.77h4.72l3.67,11.81,3.17-11.74h5.44l-6.01,19.44h-4.93l-3.71-11.84-3.78,11.84h-4.9l-5.94-19.44Z"/>
    <path class="cls-3" d="m285.43,518.88h5.83v5.76h-5.83v-5.76Z"/>
    <path class="cls-3" d="m295.94,519.17v-9.14h-2.3v-4.68h2.3v-4.93h5.47v4.93h4.54v4.68h-4.54v8.24c0,1.26.54,1.87,1.76,1.87,1.01,0,1.91-.25,2.7-.68v4.39c-1.15.68-2.48,1.12-4.32,1.12-3.35,0-5.62-1.33-5.62-5.8Z"/>
    <path class="cls-3" d="m308.5,515.1v-.07c0-5.54,4.46-10.04,10.47-10.04s10.4,4.43,10.4,9.97v.07c0,5.54-4.46,10.04-10.47,10.04s-10.4-4.43-10.4-9.97Zm15.48,0v-.07c0-2.84-2.05-5.33-5.08-5.33s-5,2.41-5,5.26v.07c0,2.84,2.05,5.33,5.08,5.33s5-2.41,5-5.26Z"/>
    <path class="cls-3" d="m332.19,519.1v-.07c0-4.21,3.2-6.16,7.77-6.16,1.94,0,3.35.32,4.72.79v-.32c0-2.27-1.4-3.53-4.14-3.53-2.09,0-3.56.4-5.33,1.04l-1.37-4.18c2.12-.94,4.21-1.55,7.49-1.55,2.99,0,5.15.79,6.52,2.16,1.44,1.44,2.09,3.56,2.09,6.16v11.19h-5.29v-2.09c-1.33,1.48-3.17,2.45-5.83,2.45-3.64,0-6.62-2.09-6.62-5.9Zm12.56-1.26v-.97c-.94-.43-2.16-.72-3.49-.72-2.34,0-3.78.94-3.78,2.66v.07c0,1.48,1.22,2.34,2.99,2.34,2.56,0,4.28-1.4,4.28-3.38Z"/>
    <path class="cls-3" d="m353.14,522.09l2.34-3.6c2.09,1.51,4.28,2.3,6.08,2.3,1.58,0,2.3-.58,2.3-1.44v-.07c0-1.19-1.87-1.58-4-2.23-2.7-.79-5.76-2.05-5.76-5.8v-.07c0-3.92,3.17-6.12,7.06-6.12,2.45,0,5.11.83,7.2,2.23l-2.09,3.78c-1.91-1.12-3.82-1.8-5.22-1.8s-2.02.58-2.02,1.33v.07c0,1.08,1.84,1.58,3.92,2.3,2.7.9,5.83,2.2,5.83,5.72v.07c0,4.28-3.2,6.23-7.38,6.23-2.7,0-5.72-.9-8.28-2.92Z"/>
    <path class="cls-3" d="m373.27,519.17v-9.14h-2.3v-4.68h2.3v-4.93h5.47v4.93h4.54v4.68h-4.54v8.24c0,1.26.54,1.87,1.76,1.87,1.01,0,1.91-.25,2.7-.68v4.39c-1.15.68-2.48,1.12-4.32,1.12-3.35,0-5.62-1.33-5.62-5.8Z"/>
    <path class="cls-3" d="m387.31,505.35h5.47v2.74c1.26-1.62,2.92-3.1,5.69-3.1,2.52,0,4.43,1.12,5.43,3.06,1.69-1.98,3.71-3.06,6.34-3.06,4.07,0,6.51,2.45,6.51,7.09v12.56h-5.47v-10.76c0-2.59-1.15-3.92-3.2-3.92s-3.31,1.33-3.31,3.92v10.76h-5.47v-10.76c0-2.59-1.15-3.92-3.2-3.92s-3.31,1.33-3.31,3.92v10.76h-5.47v-19.29Z"/>
    <path class="cls-3" d="m420.35,519.1v-.07c0-4.21,3.2-6.16,7.78-6.16,1.94,0,3.35.32,4.71.79v-.32c0-2.27-1.4-3.53-4.14-3.53-2.09,0-3.56.4-5.33,1.04l-1.37-4.18c2.12-.94,4.21-1.55,7.49-1.55,2.99,0,5.15.79,6.52,2.16,1.44,1.44,2.09,3.56,2.09,6.16v11.19h-5.29v-2.09c-1.33,1.48-3.17,2.45-5.83,2.45-3.63,0-6.62-2.09-6.62-5.9Zm12.56-1.26v-.97c-.94-.43-2.16-.72-3.49-.72-2.34,0-3.78.94-3.78,2.66v.07c0,1.48,1.22,2.34,2.99,2.34,2.56,0,4.28-1.4,4.28-3.38Z"/>
    <path class="cls-3" d="m441.31,522.09l2.34-3.6c2.09,1.51,4.28,2.3,6.08,2.3,1.58,0,2.3-.58,2.3-1.44v-.07c0-1.19-1.87-1.58-4-2.23-2.7-.79-5.76-2.05-5.76-5.8v-.07c0-3.92,3.17-6.12,7.06-6.12,2.45,0,5.11.83,7.2,2.23l-2.09,3.78c-1.91-1.12-3.82-1.8-5.22-1.8-1.33,0-2.02.58-2.02,1.33v.07c0,1.08,1.84,1.58,3.92,2.3,2.7.9,5.83,2.2,5.83,5.72v.07c0,4.28-3.2,6.23-7.38,6.23-2.7,0-5.72-.9-8.28-2.92Z"/>
    <path class="cls-3" d="m461.43,519.17v-9.14h-2.3v-4.68h2.3v-4.93h5.47v4.93h4.54v4.68h-4.54v8.24c0,1.26.54,1.87,1.76,1.87,1.01,0,1.91-.25,2.7-.68v4.39c-1.15.68-2.48,1.12-4.32,1.12-3.35,0-5.62-1.33-5.62-5.8Z"/>
    <path class="cls-3" d="m473.99,515.1v-.07c0-5.51,3.92-10.04,9.54-10.04,6.44,0,9.39,5,9.39,10.47,0,.43-.04.94-.07,1.44h-13.43c.54,2.48,2.27,3.78,4.71,3.78,1.84,0,3.17-.58,4.68-1.98l3.13,2.77c-1.8,2.23-4.39,3.6-7.88,3.6-5.8,0-10.08-4.07-10.08-9.97Zm13.61-1.62c-.32-2.45-1.76-4.1-4.07-4.1s-3.74,1.62-4.18,4.1h8.24Z"/>
    <path class="cls-3" d="m497,505.35h5.47v3.89c1.12-2.66,2.92-4.39,6.16-4.25v5.72h-.29c-3.64,0-5.87,2.2-5.87,6.8v7.13h-5.47v-19.29Z"/>
    <path class="cls-3" d="m510.53,522.09l2.34-3.6c2.09,1.51,4.28,2.3,6.08,2.3,1.58,0,2.3-.58,2.3-1.44v-.07c0-1.19-1.87-1.58-4-2.23-2.7-.79-5.76-2.05-5.76-5.8v-.07c0-3.92,3.17-6.12,7.05-6.12,2.45,0,5.11.83,7.2,2.23l-2.09,3.78c-1.91-1.12-3.82-1.8-5.22-1.8-1.33,0-2.02.58-2.02,1.33v.07c0,1.08,1.84,1.58,3.92,2.3,2.7.9,5.83,2.2,5.83,5.72v.07c0,4.28-3.2,6.23-7.38,6.23-2.7,0-5.72-.9-8.28-2.92Z"/>
    <path class="cls-3" d="m529.9,518.88h5.83v5.76h-5.83v-5.76Z"/>
    <path class="cls-3" d="m538.76,515.1v-.07c0-5.54,4.46-10.04,10.47-10.04s10.4,4.43,10.4,9.97v.07c0,5.54-4.46,10.04-10.48,10.04s-10.4-4.43-10.4-9.97Zm15.48,0v-.07c0-2.84-2.05-5.33-5.08-5.33s-5,2.41-5,5.26v.07c0,2.84,2.05,5.33,5.08,5.33s5-2.41,5-5.26Z"/>
    <path class="cls-3" d="m563.6,505.35h5.47v3.89c1.12-2.66,2.92-4.39,6.16-4.25v5.72h-.29c-3.64,0-5.87,2.2-5.87,6.8v7.13h-5.47v-19.29Z"/>
    <path class="cls-3" d="m578.39,528.46l1.87-4.1c1.98,1.12,3.96,1.76,6.51,1.76,3.74,0,5.51-1.8,5.51-5.25v-.94c-1.62,1.94-3.38,3.13-6.3,3.13-4.5,0-8.57-3.28-8.57-9v-.07c0-5.76,4.14-9,8.57-9,2.99,0,4.75,1.26,6.23,2.88v-2.52h5.47v14.94c0,3.46-.83,5.98-2.45,7.59-1.8,1.8-4.57,2.59-8.31,2.59-3.13,0-6.08-.72-8.53-2.02Zm13.89-14.4v-.07c0-2.63-2.05-4.46-4.72-4.46s-4.68,1.84-4.68,4.46v.07c0,2.66,2.02,4.46,4.68,4.46s4.72-1.84,4.72-4.46Z"/>
  </g>
</svg>