<?xml version="1.0" encoding="UTF-8"?>
<svg id="Layer_1" data-name="Layer 1" xmlns="http://www.w3.org/2000/svg" viewBox="0 0 612 792">
  <defs>
    <style>
      .cls-1 {
        fill: #231f20;
        stroke-width: 0px;
      }
    </style>
  </defs>
  <path class="cls-1" d="m453.47,409.05h0c0-1.15.92-2.11,2.09-2.11s2.09.95,2.09,2.09h0c0,1.15-.92,2.11-2.09,2.11s-2.09-.95-2.09-2.09Zm3.93-.01h0c0-1.03-.79-1.87-1.85-1.87s-1.85.85-1.85,1.87h0c0,1.03.79,1.87,1.85,1.87s1.85-.85,1.85-1.87Zm-2.66-1.1h.96c.47,0,.82.23.82.67,0,.35-.2.56-.49.65l.56.8h-.49l-.5-.73h-.44v.73h-.41v-2.12Zm.92,1.06c.28,0,.43-.14.43-.35,0-.23-.16-.35-.43-.35h-.52v.7h.52Z"/>
  <g>
    <path class="cls-1" d="m154.12,406.68h2.35l-.07,20.62h-2.29v-20.62Z"/>
    <path class="cls-1" d="m167.05,406.68h2.21l13,16.48v-16.48h2.27v20.62h-1.82l-13.34-16.88-.06,16.88h-2.23l-.02-20.62Z"/>
    <path class="cls-1" d="m200.38,408.86h-6.91v-2.16h16.22v2.14h-6.93v18.48h-2.36l-.02-18.47Z"/>
    <path class="cls-1" d="m218.64,406.61h14.92v2.12h-12.56l-.02,7.02,11.27.03-.02,2.11-11.25.02.02,7.2,12.7.05v2.08s-15.06,0-15.06,0v-20.62Z"/>
    <path class="cls-1" d="m242.97,406.68h8.25c3.11,0,5.2.67,6.57,2.11.62.65,1.52,2.35,1.52,3.83h0c0,3.45-1.97,5.59-5.57,6.26l6.33,8.43h-2.88s-6-8-6-8h-5.86l-.03,8h-2.32v-20.62Zm8.1,10.55c4.43.01,5.87-2.02,5.92-4.52h0c-.3-2.04-1.22-3.91-5.82-3.91l-5.88.04v8.35s5.78.04,5.78.04Z"/>
    <path class="cls-1" d="m268.87,406.68h2.22l12.99,16.55v-16.55s2.27,0,2.27,0v20.62s-1.87,0-1.87,0l-13.29-16.88-.02,16.88h-2.28l-.03-20.62Z"/>
    <path class="cls-1" d="m304.41,406.54h2.18l9.4,20.77h-2.5l-2.38-5.42-11.26-.02-2.45,5.44h-2.4l9.41-20.77Zm5.74,13.2l-4.67-10.48-4.72,10.48h9.39Z"/>
    <path class="cls-1" d="m327.43,408.83l-6.91.02v-2.16h16.22v2.16h-6.93l-.02,18.46h-2.34l-.02-18.48Z"/>
    <path class="cls-1" d="m345.9,406.68h2.33v20.62h-2.33v-20.62Z"/>
    <path class="cls-1" d="m357.95,417.05v-.06c0-5.63,4.29-10.66,10.36-10.67,6.65,0,10.67,4.97,10.67,10.59h0c.23,6.16-5.51,12.22-13.2,10.46-4.23-.97-7.73-5.05-7.82-10.33Zm18.63-.04v-.06c0-5.1-3.83-8.53-8.11-8.49-5.11.05-8.09,4.01-8.1,8.47v.06c.02,4.88,3.26,7.53,5.89,8.25,5.65,1.56,10.53-3.01,10.32-8.23Z"/>
    <path class="cls-1" d="m388.49,406.68h2.19l12.99,16.53v-16.53h2.3v20.62h-1.88l-13.31-16.89-.02,16.89h-2.27v-20.62Z"/>
    <path class="cls-1" d="m424.03,406.54h2.18l9.41,20.77h-2.51l-2.45-5.45-11.19.02-2.47,5.44h-2.37l9.41-20.77Zm5.73,13.18l-4.7-10.47-4.69,10.5,9.39-.03Z"/>
    <path class="cls-1" d="m444.26,406.68h2.33v18.48s11.63.02,11.63.02l-.02,2.12h-13.95v-20.62Z"/>
  </g>
  <g>
    <path class="cls-1" d="m118.91,373.19h-10.04v-6.38h27.35v6.38h-10.04v25.07h-7.26v-25.07Z"/>
    <path class="cls-1" d="m138.9,382.63v-.09c0-8.94,7.4-16.27,17.59-16.27s17.49,7.23,17.49,16.18v.09c0,8.94-7.4,16.27-17.59,16.27s-17.49-7.23-17.49-16.18Zm27.49,0v-.09c0-5.39-4.15-9.89-10-9.89s-9.9,4.4-9.9,9.8v.09c0,5.39,4.15,9.89,10,9.89s9.9-4.4,9.9-9.8Z"/>
    <path class="cls-1" d="m189.63,366.59h6.7l14.14,31.68h-7.59l-3.02-7.06h-13.96l-3.02,7.06h-7.4l14.14-31.68Zm7.64,18.51l-4.38-10.2-4.38,10.2h8.77Z"/>
    <path class="cls-1" d="m212.83,393.68l4.29-4.9c2.97,2.34,6.08,3.82,9.85,3.82,2.97,0,4.76-1.12,4.76-2.97v-.09c0-1.75-1.13-2.65-6.65-4-6.65-1.62-10.94-3.37-10.94-9.62v-.09c0-5.71,4.81-9.48,11.55-9.48,4.81,0,8.91,1.44,12.26,4l-3.77,5.21c-2.92-1.93-5.8-3.1-8.58-3.1s-4.24,1.21-4.24,2.74v.09c0,2.07,1.41,2.74,7.12,4.13,6.7,1.66,10.47,3.95,10.47,9.44v.09c0,6.25-5,9.75-12.12,9.75-5,0-10.04-1.66-14-5.03Z"/>
    <path class="cls-1" d="m252.25,373.19h-10.04v-6.38h27.35v6.38h-10.04v25.07h-7.26v-25.07Z"/>
    <path class="cls-1" d="m275.11,366.81h7.83l8.68,13.3,8.68-13.3h7.83v31.46h-7.21v-20.54l-9.29,13.44h-.19l-9.19-13.3v20.4h-7.12v-31.46Z"/>
    <path class="cls-1" d="m327.35,366.59h6.7l14.14,31.68h-7.59l-3.02-7.06h-13.96l-3.02,7.06h-7.4l14.14-31.68Zm7.64,18.51l-4.38-10.2-4.38,10.2h8.77Z"/>
    <path class="cls-1" d="m350.55,393.68l4.29-4.9c2.97,2.34,6.08,3.82,9.85,3.82,2.97,0,4.76-1.12,4.76-2.97v-.09c0-1.75-1.13-2.65-6.65-4-6.65-1.62-10.94-3.37-10.94-9.62v-.09c0-5.71,4.81-9.48,11.55-9.48,4.81,0,8.91,1.44,12.26,4l-3.77,5.21c-2.92-1.93-5.8-3.1-8.58-3.1s-4.24,1.21-4.24,2.74v.09c0,2.07,1.41,2.74,7.12,4.13,6.69,1.66,10.47,3.95,10.47,9.44v.09c0,6.25-5,9.75-12.12,9.75-5,0-10.04-1.66-14-5.03Z"/>
    <path class="cls-1" d="m389.97,373.19h-10.04v-6.38h27.35v6.38h-10.04v25.07h-7.26v-25.07Z"/>
    <path class="cls-1" d="m412.84,366.81h24.89v6.16h-17.68v6.38h15.56v6.16h-15.56v6.61h17.92v6.16h-25.13v-31.46Z"/>
    <path class="cls-1" d="m444.43,366.81h15.09c4.2,0,7.45,1.12,9.62,3.19,1.84,1.75,2.83,4.22,2.83,7.19v.09c0,5.08-2.88,8.27-7.07,9.75l8.06,11.23h-8.49l-7.07-10.07h-5.71v10.07h-7.26v-31.46Zm14.62,15.28c3.54,0,5.56-1.8,5.56-4.45v-.09c0-2.97-2.17-4.49-5.71-4.49h-7.21v9.03h7.36Z"/>
    <path class="cls-1" d="m476.25,393.68l4.29-4.9c2.97,2.34,6.08,3.82,9.86,3.82,2.97,0,4.76-1.12,4.76-2.97v-.09c0-1.75-1.13-2.65-6.65-4-6.65-1.62-10.94-3.37-10.94-9.62v-.09c0-5.71,4.81-9.48,11.55-9.48,4.81,0,8.91,1.44,12.26,4l-3.77,5.21c-2.92-1.93-5.8-3.1-8.58-3.1s-4.24,1.21-4.24,2.74v.09c0,2.07,1.41,2.74,7.12,4.13,6.7,1.66,10.47,3.95,10.47,9.44v.09c0,6.25-5,9.75-12.12,9.75-5,0-10.04-1.66-14-5.03Z"/>
  </g>
</svg>