<?xml version="1.0" encoding="utf-8"?>
<!-- Generator: Adobe Illustrator 24.2.1, SVG Export Plug-In . SVG Version: 6.00 Build 0)  -->
<svg version="1.1" id="Layer_1" xmlns="http://www.w3.org/2000/svg" xmlns:xlink="http://www.w3.org/1999/xlink" x="0px" y="0px"
	 viewBox="0 0 612 792" style="enable-background:new 0 0 612 792;" xml:space="preserve">
<style type="text/css">
	.st0{fill:none;}
	.st1{fill:#770D29;}
	.st2{fill:#004062;}
</style>
<rect x="95.7" y="354.7" class="st0" width="420.8" height="83.8"/>
<g>
	<path class="st1" d="M453.5,409.1L453.5,409.1c0-1.2,0.9-2.1,2.1-2.1c1.2,0,2.1,0.9,2.1,2.1v0c0,1.1-0.9,2.1-2.1,2.1
		C454.4,411.1,453.5,410.2,453.5,409.1z M457.4,409L457.4,409c0-1-0.8-1.9-1.8-1.9c-1,0-1.8,0.9-1.8,1.9v0c0,1,0.8,1.9,1.8,1.9
		C456.6,410.9,457.4,410.1,457.4,409z M454.7,407.9h1c0.5,0,0.8,0.2,0.8,0.7c0,0.3-0.2,0.6-0.5,0.6l0.6,0.8h-0.5l-0.5-0.7h-0.4v0.7
		h-0.4V407.9z M455.7,409c0.3,0,0.4-0.1,0.4-0.3c0-0.2-0.2-0.3-0.4-0.3h-0.5v0.7H455.7z"/>
</g>
<g>
	<path class="st2" d="M118.8,373.8h-10v-6.4h27.3v6.4h-10v25.1h-7.3V373.8z"/>
	<path class="st2" d="M138.8,383.3L138.8,383.3c0-9,7.4-16.4,17.6-16.4c10.2,0,17.5,7.2,17.5,16.2v0.1c0,8.9-7.4,16.3-17.6,16.3
		C146.1,399.4,138.8,392.2,138.8,383.3z M166.3,383.3L166.3,383.3c0-5.5-4.1-10-10-10c-5.8,0-9.9,4.4-9.9,9.8v0.1
		c0,5.4,4.1,9.9,10,9.9C162.2,393.1,166.3,388.6,166.3,383.3z"/>
	<path class="st2" d="M189.5,367.2h6.7l14.1,31.7h-7.6l-3-7.1h-14l-3,7.1h-7.4L189.5,367.2z M197.1,385.7l-4.4-10.2l-4.4,10.2H197.1
		z"/>
	<path class="st2" d="M212.7,394.3l4.3-4.9c3,2.3,6.1,3.8,9.9,3.8c3,0,4.8-1.1,4.8-3v-0.1c0-1.8-1.1-2.7-6.6-4
		c-6.6-1.6-10.9-3.4-10.9-9.6v-0.1c0-5.7,4.8-9.5,11.6-9.5c4.8,0,8.9,1.4,12.3,4l-3.8,5.2c-2.9-1.9-5.8-3.1-8.6-3.1
		c-2.8,0-4.2,1.2-4.2,2.7v0.1c0,2.1,1.4,2.7,7.1,4.1c6.7,1.7,10.5,4,10.5,9.4v0.1c0,6.2-5,9.8-12.1,9.8
		C221.7,399.3,216.7,397.7,212.7,394.3z"/>
	<path class="st2" d="M252.1,373.8h-10v-6.4h27.3v6.4h-10v25.1h-7.3V373.8z"/>
	<path class="st2" d="M275,367.4h7.8l8.7,13.3l8.7-13.3h7.8v31.5h-7.2v-20.5l-9.3,13.4h-0.2l-9.2-13.3v20.4H275V367.4z"/>
	<path class="st2" d="M327.2,367.2h6.7l14.1,31.7h-7.6l-3-7.1h-14l-3,7.1h-7.4L327.2,367.2z M334.9,385.7l-4.4-10.2l-4.4,10.2H334.9
		z"/>
	<path class="st2" d="M350.4,394.3l4.3-4.9c3,2.3,6.1,3.8,9.9,3.8c3,0,4.8-1.1,4.8-3v-0.1c0-1.8-1.1-2.7-6.6-4
		c-6.6-1.6-10.9-3.4-10.9-9.6v-0.1c0-5.7,4.8-9.5,11.6-9.5c4.8,0,8.9,1.4,12.3,4l-3.8,5.2c-2.9-1.9-5.8-3.1-8.6-3.1
		c-2.8,0-4.2,1.2-4.2,2.7v0.1c0,2.1,1.4,2.7,7.1,4.1c6.7,1.7,10.5,4,10.5,9.4v0.1c0,6.2-5,9.8-12.1,9.8
		C359.4,399.3,354.4,397.7,350.4,394.3z"/>
	<path class="st2" d="M389.8,373.8h-10v-6.4h27.3v6.4h-10v25.1h-7.3V373.8z"/>
	<path class="st2" d="M412.7,367.4h24.9v6.2h-17.7v6.4h15.6v6.2h-15.6v6.6h17.9v6.2h-25.1V367.4z"/>
	<path class="st2" d="M444.3,367.4h15.1c4.2,0,7.4,1.1,9.6,3.2c1.8,1.8,2.8,4.2,2.8,7.2v0.1c0,5.1-2.9,8.3-7.1,9.8l8.1,11.2h-8.5
		l-7.1-10.1h-5.7v10.1h-7.3V367.4z M458.9,382.7c3.5,0,5.6-1.8,5.6-4.4v-0.1c0-3-2.2-4.5-5.7-4.5h-7.2v9H458.9z"/>
	<path class="st2" d="M476.1,394.3l4.3-4.9c3,2.3,6.1,3.8,9.9,3.8c3,0,4.8-1.1,4.8-3v-0.1c0-1.8-1.1-2.7-6.6-4
		c-6.6-1.6-10.9-3.4-10.9-9.6v-0.1c0-5.7,4.8-9.5,11.6-9.5c4.8,0,8.9,1.4,12.3,4l-3.8,5.2c-2.9-1.9-5.8-3.1-8.6-3.1
		c-2.8,0-4.2,1.2-4.2,2.7v0.1c0,2.1,1.4,2.7,7.1,4.1c6.7,1.7,10.5,4,10.5,9.4v0.1c0,6.2-5,9.8-12.1,9.8
		C485.1,399.3,480.1,397.7,476.1,394.3z"/>
</g>
<g>
	<path class="st1" d="M154.1,406.7h2.3l-0.1,20.6h-2.3L154.1,406.7z"/>
	<path class="st1" d="M167.1,406.7h2.2l13,16.5l0-16.5h2.3v20.6h-1.8l-13.3-16.9l-0.1,16.9h-2.2L167.1,406.7z"/>
	<path class="st1" d="M200.4,408.9h-6.9v-2.2h16.2l0,2.1h-6.9v18.5h-2.4L200.4,408.9z"/>
	<path class="st1" d="M218.6,406.6h14.9v2.1H221l0,7l11.3,0l0,2.1l-11.2,0l0,7.2l12.7,0l0,2.1h-15.1V406.6z"/>
	<path class="st1" d="M243,406.7h8.3c3.1,0,5.2,0.7,6.6,2.1c0.6,0.6,1.5,2.4,1.5,3.8l0,0c0,3.4-2,5.6-5.6,6.3l6.3,8.4l-2.9,0l-6-8
		h-5.9l0,8H243L243,406.7z M251.1,417.2c4.4,0,5.9-2,5.9-4.5l0,0c-0.3-2-1.2-3.9-5.8-3.9l-5.9,0l0,8.3L251.1,417.2z"/>
	<path class="st1" d="M268.9,406.7h2.2l13,16.6l0-16.6h2.3l0,20.6h-1.9l-13.3-16.9l0,16.9h-2.3L268.9,406.7z"/>
	<path class="st1" d="M304.4,406.5h2.2l9.4,20.8h-2.5l-2.4-5.4l-11.3,0l-2.4,5.4H295L304.4,406.5z M310.1,419.7l-4.7-10.5l-4.7,10.5
		H310.1z"/>
	<path class="st1" d="M327.4,408.8l-6.9,0v-2.2h16.2v2.2h-6.9l0,18.5h-2.3L327.4,408.8z"/>
	<path class="st1" d="M345.9,406.7h2.3v20.6h-2.3V406.7z"/>
	<path class="st1" d="M357.9,417.1L357.9,417.1c0-5.7,4.3-10.7,10.4-10.7c6.6,0,10.7,5,10.7,10.6l0,0c0.2,6.2-5.5,12.2-13.2,10.5
		C361.5,426.4,358,422.3,357.9,417.1z M376.6,417L376.6,417c0-5.2-3.8-8.6-8.1-8.5c-5.1,0.1-8.1,4-8.1,8.5v0.1
		c0,4.9,3.3,7.5,5.9,8.3C371.9,426.8,376.8,422.2,376.6,417z"/>
	<path class="st1" d="M388.5,406.7h2.2l13,16.5l0-16.5h2.3v20.6h-1.9l-13.3-16.9l0,16.9h-2.3L388.5,406.7z"/>
	<path class="st1" d="M424,406.5h2.2l9.4,20.8h-2.5l-2.5-5.5l-11.2,0l-2.5,5.4h-2.4L424,406.5z M429.8,419.7l-4.7-10.5l-4.7,10.5
		L429.8,419.7z"/>
	<path class="st1" d="M444.3,406.7h2.3l0,18.5l11.6,0l0,2.1h-13.9V406.7z"/>
</g>
</svg>
