<?xml version="1.0" encoding="UTF-8"?>
<svg id="Layer_1" data-name="Layer 1" xmlns="http://www.w3.org/2000/svg" viewBox="0 0 612 792">
  <defs>
    <style>
      .cls-1 {
        fill: #fff;
        stroke-width: 0px;
      }
    </style>
  </defs>
  <g>
    <g>
      <path class="cls-1" d="m38.72,379.17h-9.72v-6.48h26.47v6.48h-9.72v25.47h-7.03v-25.47Z"/>
      <path class="cls-1" d="m59.24,388.76v-.09c0-9.08,7.16-16.52,17.02-16.52s16.93,7.35,16.93,16.43v.09c0,9.08-7.17,16.52-17.03,16.52s-16.93-7.35-16.93-16.43Zm26.61,0v-.09c0-5.48-4.01-10.04-9.68-10.04s-9.58,4.47-9.58,9.95v.09c0,5.48,4.02,10.04,9.68,10.04s9.58-4.47,9.58-9.95Z"/>
      <path class="cls-1" d="m109.53,372.46h6.48l13.7,32.18h-7.35l-2.92-7.17h-13.51l-2.92,7.17h-7.17l13.69-32.18Zm7.39,18.81l-4.24-10.36-4.25,10.36h8.49Z"/>
      <path class="cls-1" d="m133.16,399.99l4.15-4.98c2.87,2.38,5.89,3.88,9.54,3.88,2.88,0,4.61-1.14,4.61-3.01v-.09c0-1.78-1.1-2.69-6.44-4.06-6.44-1.65-10.59-3.43-10.59-9.77v-.09c0-5.79,4.65-9.63,11.18-9.63,4.65,0,8.63,1.46,11.87,4.06l-3.65,5.29c-2.83-1.96-5.61-3.15-8.31-3.15s-4.11,1.23-4.11,2.79v.09c0,2.1,1.37,2.78,6.89,4.2,6.48,1.69,10.13,4.02,10.13,9.58v.09c0,6.34-4.84,9.9-11.73,9.9-4.83,0-9.72-1.69-13.55-5.11Z"/>
      <path class="cls-1" d="m172.49,379.17h-9.73v-6.48h26.48v6.48h-9.72v25.47h-7.03v-25.47Z"/>
      <path class="cls-1" d="m195.8,372.7h7.58l8.4,13.51,8.4-13.51h7.58v31.95h-6.99v-20.86l-8.99,13.65h-.18l-8.9-13.51v20.72h-6.89v-31.95Z"/>
      <path class="cls-1" d="m247.54,372.46h6.48l13.69,32.18h-7.35l-2.92-7.17h-13.51l-2.92,7.17h-7.16l13.69-32.18Zm7.39,18.81l-4.24-10.36-4.25,10.36h8.49Z"/>
      <path class="cls-1" d="m271.18,399.99l4.15-4.98c2.87,2.38,5.89,3.88,9.54,3.88,2.87,0,4.61-1.14,4.61-3.01v-.09c0-1.78-1.1-2.69-6.44-4.06-6.43-1.65-10.59-3.43-10.59-9.77v-.09c0-5.79,4.66-9.63,11.19-9.63,4.65,0,8.62,1.46,11.86,4.06l-3.65,5.29c-2.83-1.96-5.62-3.15-8.31-3.15s-4.11,1.23-4.11,2.79v.09c0,2.1,1.37,2.78,6.89,4.2,6.48,1.69,10.13,4.02,10.13,9.58v.09c0,6.34-4.84,9.9-11.73,9.9-4.84,0-9.72-1.69-13.55-5.11Z"/>
      <path class="cls-1" d="m310.5,379.17h-9.72v-6.48h26.47v6.48h-9.72v25.47h-7.03v-25.47Z"/>
      <path class="cls-1" d="m333.81,372.7h24.1v6.25h-17.12v6.48h15.06v6.25h-15.06v6.71h17.35v6.26h-24.33v-31.95Z"/>
      <path class="cls-1" d="m365.56,372.7h14.6c4.06,0,7.21,1.14,9.31,3.24,1.79,1.78,2.74,4.29,2.74,7.3v.09c0,5.16-2.79,8.4-6.85,9.9l7.8,11.41h-8.22l-6.84-10.23h-5.52v10.23h-7.03v-31.95Zm14.15,15.52c3.42,0,5.38-1.83,5.38-4.52v-.09c0-3.01-2.1-4.57-5.52-4.57h-6.98v9.18h7.12Z"/>
      <path class="cls-1" d="m397.55,399.99l4.15-4.98c2.87,2.38,5.89,3.88,9.54,3.88,2.88,0,4.61-1.14,4.61-3.01v-.09c0-1.78-1.1-2.69-6.44-4.06-6.43-1.65-10.59-3.43-10.59-9.77v-.09c0-5.79,4.66-9.63,11.18-9.63,4.66,0,8.62,1.46,11.87,4.06l-3.65,5.29c-2.83-1.96-5.62-3.15-8.3-3.15s-4.11,1.23-4.11,2.79v.09c0,2.1,1.37,2.78,6.89,4.2,6.48,1.69,10.13,4.02,10.13,9.58v.09c0,6.34-4.83,9.9-11.73,9.9-4.84,0-9.72-1.69-13.55-5.11Z"/>
    </g>
    <path class="cls-1" d="m373.49,414.73h0c0-1.15.92-2.11,2.09-2.11s2.09.95,2.09,2.09h0c0,1.15-.92,2.11-2.09,2.11s-2.09-.95-2.09-2.09Zm3.93-.01h0c0-1.03-.79-1.87-1.85-1.87s-1.85.85-1.85,1.87h0c0,1.03.79,1.87,1.85,1.87s1.85-.85,1.85-1.87Zm-2.66-1.1h.96c.47,0,.82.23.82.67,0,.35-.2.56-.49.65l.56.8h-.49l-.5-.73h-.44v.73h-.41v-2.12Zm.92,1.06c.28,0,.43-.14.43-.35,0-.23-.16-.35-.43-.35h-.52v.7h.52Z"/>
    <g>
      <path class="cls-1" d="m74.14,412.36h2.35l-.07,20.62h-2.29v-20.62Z"/>
      <path class="cls-1" d="m87.07,412.36h2.21l13,16.48v-16.48h2.27v20.62h-1.82l-13.34-16.87-.06,16.87h-2.23l-.02-20.62Z"/>
      <path class="cls-1" d="m120.4,414.53h-6.91v-2.16h16.22v2.14h-6.93v18.48h-2.36l-.02-18.47Z"/>
      <path class="cls-1" d="m138.66,412.29h14.92v2.12h-12.56l-.02,7.02,11.27.03-.02,2.11-11.25.02.02,7.2,12.7.05v2.08s-15.06,0-15.06,0v-20.62Z"/>
      <path class="cls-1" d="m162.98,412.36h8.25c3.11,0,5.2.67,6.57,2.11.62.65,1.52,2.35,1.52,3.83h0c0,3.45-1.97,5.59-5.57,6.26l6.33,8.43h-2.88s-6-8-6-8h-5.86l-.03,8h-2.32v-20.62Zm8.1,10.55c4.43.01,5.87-2.02,5.92-4.52h0c-.3-2.04-1.22-3.91-5.82-3.91l-5.88.04v8.35s5.78.04,5.78.04Z"/>
      <path class="cls-1" d="m188.89,412.36h2.22l12.99,16.55v-16.55s2.27,0,2.27,0v20.62s-1.87,0-1.87,0l-13.29-16.87-.02,16.87h-2.28l-.03-20.62Z"/>
      <path class="cls-1" d="m224.43,412.21h2.18l9.4,20.77h-2.5l-2.38-5.42-11.26-.02-2.45,5.44h-2.4l9.41-20.77Zm5.74,13.2l-4.67-10.48-4.72,10.48h9.39Z"/>
      <path class="cls-1" d="m247.45,414.51l-6.91.02v-2.16h16.22v2.16h-6.93l-.02,18.46h-2.34l-.02-18.48Z"/>
      <path class="cls-1" d="m265.91,412.36h2.33v20.62h-2.33v-20.62Z"/>
      <path class="cls-1" d="m277.96,422.73v-.06c0-5.63,4.29-10.66,10.36-10.67,6.65,0,10.67,4.97,10.67,10.59h0c.23,6.16-5.51,12.22-13.2,10.46-4.23-.97-7.73-5.05-7.82-10.33Zm18.63-.04v-.06c0-5.1-3.83-8.53-8.11-8.49-5.11.05-8.09,4.01-8.1,8.47v.06c.02,4.88,3.26,7.53,5.89,8.25,5.65,1.56,10.53-3.01,10.32-8.23Z"/>
      <path class="cls-1" d="m308.51,412.36h2.19l12.99,16.53v-16.53h2.3v20.62h-1.88l-13.31-16.89-.02,16.89h-2.27v-20.62Z"/>
      <path class="cls-1" d="m344.04,412.21h2.18l9.41,20.77h-2.51l-2.45-5.45-11.19.02-2.47,5.44h-2.37l9.41-20.77Zm5.73,13.18l-4.7-10.47-4.69,10.5,9.39-.03Z"/>
      <path class="cls-1" d="m364.27,412.36h2.33v18.48s11.63.02,11.63.02l-.02,2.12h-13.95v-20.62Z"/>
    </g>
  </g>
  <g>
    <g>
      <path class="cls-1" d="m493.66,373.64c2.4-.95,5.05-2.05,7.6-2.95,2.1-2.95,4.5-5.15,6.45-6.45,1.1-.7,2.6-1.3,3.9-1.35.85,0,1.85.25,1.75,1.35-.15,1.65-2.7,3.55-6.1,4.95-.45.2-.9.4-1.35.55-.8,1.5-1.75,3.3-2.7,5.2-3.8,7.6-11.2,10.45-17.69,10.9-2.6.15-6.45-.1-8.65-1.45-1.05.8-3.2,3.05-3.8,4.4-.15.3-.25.5-.4.45-.15-.05-.05-.45,0-.6.5-1.35,1.75-3.05,3.45-4.75-1.4-1.15-2.45-2.7-2.3-4.9.4-4.9,6.8-7.5,11.5-7.8,2.65-.2,6.7.35,8.3,2.4l.05.05Zm-1.15.4c-1.1-2.15-4.8-2.6-7.2-2.4-3.5.25-8.15,2.6-8.5,7-.1,1.65.25,2.9.9,3.9.4-.35.85-.75,1.3-1.05.95-.75,1.95-1.45,3.05-2.15-.5-.45-.85-1.1-1-1.8,0-.2.05-.55.2-.5.1,0,.1.2.15.4.2.7.6,1.25,1.1,1.65,2.15-1.3,4.5-2.5,6.65-3.5,1.1-.55,2.25-1,3.4-1.5l-.05-.05Zm-9.7,5.95c-1,.65-1.95,1.3-2.9,2-.5.4-1.1.85-1.6,1.3,1.8,1.85,5,2.35,7.65,2.15,5.35-.4,9.1-3.95,12.8-10.55.6-1.1,1.4-2.35,2.1-3.35v-.05c-2.25.85-4.55,1.8-6.85,2.75.25.5.35,1,.35,1.6-.15,3.35-4.4,5.2-7.6,5.2-1.25,0-2.75-.35-3.95-1.05Zm10.15-4.1c0-.45-.05-.8-.15-1.15-1.05.45-2.2.95-3.35,1.5-1.65.8-3.9,2-6.15,3.45,1.1.6,2.4.85,3.4.85,2.7,0,6.1-1.8,6.25-4.65Zm13.25-6.85c.25-.1.65-.25.9-.35,2.75-1.15,5.45-2.8,5.7-4.45.1-.7-.5-1-1.2-.9-.65.1-1.45.6-2.25,1.4-1,.95-2.1,2.45-3.15,4.25v.05Z"/>
      <path class="cls-1" d="m502.76,383.59c0-.65.35-1.3.7-1.9,1-1.6,2.75-3.55,3.95-4.65.7-.65,1.1-1.05,2.6-1.05,1.7,0,1.9.15,1.4.85-.95,1-1.85,2.05-2.85,3.25-.85,1.05-1.45,1.95-1.7,2.45-.25.4-.4.9-.15,1.1.2.15.7,0,1.1-.2.55-.3,1.4-.85,2.2-1.5,1.05-.85,1.85-1.5,2.4-2.05.25-.15.55-.45.7-.3.15.15-.25.5-.4.65-.6.6-2.05,1.9-3,2.6-1.45,1.1-3.05,2.15-5,2.15-1.6,0-1.95-.65-1.95-1.4Zm12-12.8c-.75.95-2.25,1.65-2.85,1.65-.3-.4-.35-1.35-.05-2.05.4-.95,1.25-1.15,2.25-1.15s1.35.65.65,1.55Z"/>
      <path class="cls-1" d="m523,383.09c.15-.9,1.2-2.15,1.9-3.05s1.45-1.75,2.05-2.45c.2-.25.15-.55-.05-.65-.3-.15-.9.1-1.3.25-.85.45-2.05,1.25-3.7,2.55-2.1,1.75-3.5,2.8-5.65,4.45-.4.3-1.45.5-2,.55-1.3.05-1.55-.1-1.2-.8.45-.95,1.2-2.15,2.1-3.35.75-1.05,1.2-1.6,1.95-2.7.2-.2.35-.55.15-.75-.2-.15-.5,0-.75.15-.6.3-1.2.8-1.85,1.3-.75.6-1.6,1.3-2.35,2-.25.2-.5.4-.65.3-.1-.1.15-.45.35-.6.7-.7,1.75-1.65,2.65-2.35,1-.8,2.85-2.1,4.4-2.1,1.35,0,1.85.6,1.85,1.3s-.45,1.4-.95,2.1c-.7,1-1.5,2.1-2.05,2.9l.1.1c1.4-1.15,2.7-2.25,4.35-3.55,1.75-1.3,4.05-2.85,6.2-2.85,1.4,0,2.05.55,1.95,1.5-.1.9-1.1,2.05-1.85,3.05-.75.95-1.25,1.55-1.55,2.05-.3.55-.35.9-.1,1.1.25.15.75.05,1.2-.1.55-.3,1.55-1,2.1-1.55.8-.6,1.9-1.5,2.55-2.05.2-.2.45-.4.6-.25.1.1-.3.5-.45.65-.55.55-2,1.85-3,2.6-1.05.8-2.8,2.05-4.75,2.05s-2.35-.95-2.25-1.8Z"/>
      <path class="cls-1" d="m532.15,382.74c0-.95.55-1.95,1.25-2.8h-.05c-.25.2-.5.45-.7.65-.25.2-.55.4-.65.3-.1-.15.15-.4.35-.6.5-.5,1.15-.95,1.65-1.35.55-.4,1.8-1.2,2.5-1.55,1.6-.85,3.75-1.55,5.35-1.55,1.5,0,2.15.95,1.95,1.9-.15.9-1.1,1.7-1.7,1.7-.85,0-.85-.7-.45-1.4.6-.95.8-1.55.2-1.75-.55-.1-1.7.7-3.1,2.15-1.35,1.35-2.65,3.25-2.8,4.45-.1.7.35,1.15,1.15,1.15.65,0,2.35-.35,4.55-1.8.95-.65,2.2-1.65,2.8-2.2.2-.15.55-.45.7-.3.15.1-.15.45-.4.65-.55.55-1.65,1.5-2.85,2.3-1.75,1.2-4.35,2.3-6.4,2.3-2.25,0-3.35-.9-3.35-2.25Z"/>
      <path class="cls-1" d="m556.04,377.29c-.1,1.35-1.75,2.35-3.3,3.1-1.5.7-3.7,1.25-4.95,1.55-.15.3-.3.65-.3.95,0,.8.45,1.15,1.2,1.15,1.15.05,3-.5,4.85-1.7,1.1-.7,2.45-1.8,3.15-2.45.25-.2.55-.45.65-.3.15.15-.25.45-.4.6-.65.7-1.85,1.75-3.15,2.6-2.1,1.4-4.5,2.15-6.3,2.2-2.8.1-3.8-.9-3.75-2.15,0-.95.5-1.8,1.15-2.6h-.05c-.15.1-.25.2-.35.35-.25.2-.55.4-.65.3-.1-.15.15-.4.35-.6.5-.5,1.15-.95,1.65-1.35.55-.35,1.5-1.05,2.5-1.55,1.9-1,3.75-1.55,5.5-1.55,1.6,0,2.25.7,2.2,1.45Zm-8,4.15c.9-.2,2.2-.65,3.45-1.55,1.3-.95,2.1-2.15,2.2-2.8.05-.45-.1-.7-.55-.7-.5,0-1.35.45-2.7,1.85-.85.85-1.85,2.2-2.4,3.15v.05Z"/>
    </g>
    <g>
      <path class="cls-1" d="m482.47,402.39l-6.02,1.67-1.24-4.78,9.03-2.87h4.06v33.67h-5.83v-27.7Z"/>
      <path class="cls-1" d="m515.42,414.76c-1.86,2.25-4.44,3.58-7.88,3.58-7.12,0-11.85-4.16-11.85-10.6v-.1c0-6.54,5.06-11.56,12.47-11.56,4.2,0,6.93,1.19,9.31,3.53,2.44,2.48,4.01,6.16,4.01,12.75v.1c0,10.75-5.3,18.2-14.33,18.2-4.63,0-7.88-1.67-10.7-4.01l3.2-4.49c2.53,2.1,4.78,3.15,7.64,3.15,5.92,0,8.07-6.11,8.12-10.56Zm-.24-7.36v-.1c0-3.49-2.72-6.16-6.97-6.16s-6.64,2.77-6.64,6.21v.1c0,3.49,2.68,5.97,6.83,5.97s6.78-2.77,6.78-6.02Z"/>
      <path class="cls-1" d="m526.08,425.46l11.51-9.79c4.59-3.92,6.26-6.02,6.26-9.03,0-3.3-2.34-5.21-5.4-5.21s-5.16,1.67-7.69,5.02l-4.2-3.3c3.2-4.44,6.35-6.97,12.32-6.97,6.54,0,11.03,4.01,11.03,9.98v.1c0,5.25-2.77,8.12-8.69,12.94l-6.88,5.73h15.91v5.16h-24.17v-4.63Z"/>
      <path class="cls-1" d="m571.74,422.6h-16.86l-1.1-4.2,18.58-21.97h5.01v21.35h4.78v4.82h-4.78v7.5h-5.64v-7.5Zm0-4.82v-13.23l-10.99,13.23h10.99Z"/>
    </g>
  </g>
  <rect class="cls-1" x="448.25" y="331.95" width="1.12" height="129.19"/>
</svg>