<?xml version="1.0" encoding="utf-8"?>
<!-- Generator: Adobe Illustrator 24.0.2, SVG Export Plug-In . SVG Version: 6.00 Build 0)  -->
<svg version="1.1" id="Layer_1" xmlns="http://www.w3.org/2000/svg" xmlns:xlink="http://www.w3.org/1999/xlink" x="0px" y="0px"
	 width="434.6px" height="360.1px" viewBox="0 0 434.6 360.1" style="enable-background:new 0 0 434.6 360.1;" xml:space="preserve"
	>
<metadata><?xpacket begin="﻿" id="W5M0MpCehiHzreSzNTczkc9d"?>
<x:xmpmeta xmlns:x="adobe:ns:meta/" x:xmptk="Adobe XMP Core 7.1-c000 79.4d2f597, 2021/09/01-20:51:22        ">
   <rdf:RDF xmlns:rdf="http://www.w3.org/1999/02/22-rdf-syntax-ns#">
      <rdf:Description rdf:about=""
            xmlns:dc="http://purl.org/dc/elements/1.1/"
            xmlns:Iptc4xmpCore="http://iptc.org/std/Iptc4xmpCore/1.0/xmlns/"
            xmlns:xmp="http://ns.adobe.com/xap/1.0/"
            xmlns:xmpMM="http://ns.adobe.com/xap/1.0/mm/"
            xmlns:stEvt="http://ns.adobe.com/xap/1.0/sType/ResourceEvent#">
         <dc:creator>
            <rdf:Seq>
               <rdf:li>Toastmasters International</rdf:li>
            </rdf:Seq>
         </dc:creator>
         <Iptc4xmpCore:AltTextAccessibility>
            <rdf:Alt>
               <rdf:li xml:lang="x-default">Toastmasters International Logo</rdf:li>
            </rdf:Alt>
         </Iptc4xmpCore:AltTextAccessibility>
         <xmp:MetadataDate>2023-06-09T15:20:05-06:00</xmp:MetadataDate>
         <xmpMM:InstanceID>xmp.iid:6d6afed2-509b-420c-955f-a5f5425cc51b</xmpMM:InstanceID>
         <xmpMM:DocumentID>xmp.did:6d6afed2-509b-420c-955f-a5f5425cc51b</xmpMM:DocumentID>
         <xmpMM:OriginalDocumentID>xmp.did:6d6afed2-509b-420c-955f-a5f5425cc51b</xmpMM:OriginalDocumentID>
         <xmpMM:History>
            <rdf:Seq>
               <rdf:li>
                  <rdf:Description>
                     <stEvt:action>saved</stEvt:action>
                     <stEvt:instanceID>xmp.iid:6d6afed2-509b-420c-955f-a5f5425cc51b</stEvt:instanceID>
                     <stEvt:when>2023-06-09T15:20:05-06:00</stEvt:when>
                     <stEvt:softwareAgent>Adobe Bridge 2023</stEvt:softwareAgent>
                     <stEvt:changed>/metadata</stEvt:changed>
                  </rdf:Description>
               </rdf:li>
            </rdf:Seq>
         </xmpMM:History>
      </rdf:Description>
   </rdf:RDF>
</x:xmpmeta>
                                                                                                    
                                                                                                    
                                                                                                    
                                                                                                    
                                                                                                    
                                                                                                    
                                                                                                    
                                                                                                    
                                                                                                    
                                                                                                    
                                                                                                    
                                                                                                    
                                                                                                    
                                                                                                    
                                                                                                    
                                                                                                    
                                                                                                    
                                                                                                    
                                                                                                    
                                                                                                    
                           
<?xpacket end="w"?></metadata>
<style type="text/css">
	.st0{fill:#770D29;}
	.st1{fill:none;}
	.st2{fill:url(#SVGID_1_);}
	.st3{fill:url(#SVGID_2_);}
	.st4{fill:url(#SVGID_3_);}
	.st5{fill:url(#SVGID_4_);}
	.st6{fill:url(#SVGID_5_);}
	.st7{fill:url(#SVGID_6_);}
	.st8{fill:url(#SVGID_7_);}
	.st9{fill:url(#SVGID_8_);}
	.st10{fill:url(#SVGID_9_);}
	.st11{fill:#FFEB88;}
	.st12{fill:url(#SVGID_10_);}
	.st13{fill:url(#SVGID_11_);}
	.st14{fill:url(#SVGID_12_);}
	.st15{fill:url(#SVGID_13_);}
	.st16{fill:url(#SVGID_14_);}
	.st17{fill:url(#SVGID_15_);}
	.st18{fill:url(#SVGID_16_);}
	.st19{fill:url(#SVGID_17_);}
	.st20{fill:url(#SVGID_18_);}
	.st21{fill:url(#SVGID_19_);}
	.st22{fill:url(#SVGID_20_);}
	.st23{fill:url(#SVGID_21_);}
	.st24{fill:url(#SVGID_22_);}
	.st25{fill:url(#SVGID_23_);}
	.st26{fill:url(#SVGID_24_);}
	.st27{fill:url(#SVGID_25_);}
	.st28{fill:url(#SVGID_26_);}
	.st29{fill:url(#SVGID_27_);}
	.st30{fill:url(#SVGID_28_);}
	.st31{fill:url(#SVGID_29_);}
	.st32{fill:url(#SVGID_30_);}
	.st33{fill:url(#SVGID_31_);}
	.st34{fill:url(#SVGID_32_);}
	.st35{fill:url(#SVGID_33_);}
	.st36{fill:url(#SVGID_34_);}
	.st37{fill:url(#SVGID_35_);}
	.st38{fill:url(#SVGID_36_);}
	.st39{fill:url(#SVGID_37_);}
	.st40{fill:url(#SVGID_38_);}
	.st41{fill:#FFFFFF;}
	.st42{fill:#7A1613;}
	.st43{fill:#004062;}
</style>
<path class="st0" d="M390.6,132C369.6,55.8,299.9-0.1,217.1-0.1C134.2-0.1,64.5,55.8,43.5,132H0.2v97h43.6
	c21.3,75.6,90.8,131.1,173.3,131.1c82.5,0,152-55.5,173.3-131.1h44v-97H390.6z M427.6,222.4h-42.8c-0.1,0.2-0.1,0.4-0.2,0.6
	c-11.8,44.8-40.4,82.3-80.3,105.8c-26.9,15.8-56.8,23.8-87,23.8c-14.7,0-29.5-1.9-44.1-5.8c-44.6-11.8-81.9-40.3-105.1-80.4
	c-8.1-14-14.1-28.8-18-44H6.8v-83.8h42.7c0.3-1.3,0.6-2.6,1-3.8C62.3,90,90.9,52.4,130.8,29c40-23.4,86.5-29.8,131.1-18.1
	c44.6,11.8,81.9,40.3,105.1,80.4c8.7,15,14.9,30.8,18.8,47.2h41.8V222.4z"/>
<path class="st1" d="M280.3,59.4c-10.1-1-20.3-2.8-31.3-5.4h0c-9.5-2.3-17.9-4.9-25.9-8c-2.7,3.9-5.4,8.2-8.1,12.7
	c10,2.2,20.3,4.8,30.6,7.7c12.3,3.5,24.4,7.3,35.8,11.3c0-1.4-0.1-2.8-0.1-4.2C281.2,68.6,280.8,63.8,280.3,59.4z"/>
<path class="st1" d="M131.9,97.7L131.9,97.7c6.7,3.7,14,7.3,22.3,11c8.8,3.9,18,7.8,27.6,11.3c5.9-16.1,12.4-31.3,19.5-45.2
	c2.2-4.3,4.5-8.7,7-13c-13.8-2.5-27.4-4.4-40.2-5.6h0c-1.8-0.2-3.7-0.3-6.1-0.5C150.7,67.6,140.6,81.7,131.9,97.7z"/>
<path class="st1" d="M198.1,33.6c-1.7-1.2-3.3-2.4-4.7-3.6c-9.1,5.4-17.9,12.3-26.4,20.5c0.3,0,0.6,0.1,0.9,0.1l1,0.1
	c13.4,1.6,27,3.9,41.8,7.1l0.2-0.3c0.7-1.1,1.4-2.3,2.1-3.4c2.1-3.3,4.2-6.5,6.3-9.5c-1.9-0.8-3.5-1.4-4.9-2.1
	C207.6,39.4,202.6,36.7,198.1,33.6z"/>
<path class="st1" d="M120.5,122.3c5.8,0.5,12.1,1.2,19.2,2.2c12.3,1.7,24.8,3.9,38.2,6.7c0.7-1.9,1.3-3.9,2-5.8
	c-9.8-3.3-19.1-6.9-27.9-10.5l0,0c-8.8-3.8-16.4-7.4-23.3-11C125.7,109.8,123,116,120.5,122.3z"/>
<path class="st1" d="M319.3,92.7c3,1.3,6,2.7,9,4.2l-0.1-0.4c-0.2-0.8-0.4-1.7-0.7-2.5c-3.8-13.1-9-25.1-15.6-35.7
	c-2.5,0.7-5.2,1.2-8.5,1.6c-5.5,0.5-11.5,0.5-18.3,0c-0.7,0-1.3-0.1-2-0.2l-0.1,0c0.6,5.9,0.9,12.2,0.9,18.9
	C296.1,82.9,308.1,87.7,319.3,92.7z"/>
<path class="st1" d="M225.6,337c15.8-5.8,31.5-16.1,45.4-29.7c0.3-0.3,0.6-0.6,0.9-0.9c0.1-0.1,0.1-0.1,0.2-0.2
	c-3.1-0.2-6.2-0.5-9.3-0.8c-12.2-1.2-25.1-2.9-38.1-5.2c-5,8.7-10,16-15.1,22.4c-5.5,6.8-10.7,11.8-15.8,15.3
	c-2.1,1.4-4.2,2.5-6.2,3.4c2.6,0.5,5.3,0.9,7.9,1.3c1.6,0,3.2,0,4.7-0.1C208.6,342,217.1,340.2,225.6,337z"/>
<path class="st1" d="M154.3,308.7c-1.3-7-2.1-14.5-2.5-23.2c0-0.7,0-1.3-0.1-2c0-0.4,0-0.7,0-1.1c-14.2-4.5-27.2-9.2-39.7-14.4
	c-0.3-0.1-0.6-0.2-0.8-0.4c-0.2-0.1-0.5-0.2-0.7-0.3c5.2,17.4,12.8,32.3,22.5,44.2c5.7,7,12,12.9,18.9,17.6l0,0
	c2.1,1.4,4.3,2.8,6.6,4c2,0.8,4,1.5,6.1,2.2c-1.3-1.7-2.5-3.5-3.6-5.6C158.1,324.2,155.9,317.3,154.3,308.7z"/>
<path class="st1" d="M184,339c2.7-0.7,5.5-2,8.4-3.9c5-3.2,10-7.9,15.4-14.4c4.4-5.2,8.7-11.3,13.2-18.5c0.4-0.6,0.8-1.3,1.2-1.9
	l0.3-0.5c-11.8-2.1-24-4.8-36.2-7.8c-10.4-2.6-20.6-5.4-30.3-8.4c0.2,8.6,0.8,16.2,1.9,23.3c1.3,8.2,3.2,14.8,5.8,20.1
	c1.8,3.8,4.9,8.5,9.4,10.9c0.8,0.2,1.5,0.4,2.3,0.6c1.3,0.3,2.6,0.7,3.8,1C180.8,339.6,182.4,339.5,184,339z"/>
<path class="st1" d="M130,315c-11.2-13.2-20.1-30.4-25.7-49.6c-0.1-0.2-0.1-0.4-0.2-0.6l-0.1-0.4c-10.4-4.7-19.2-9.4-27-14.3
	c-4.5-2.9-8.2-5.5-11.4-8.1c2.8,6.9,6.1,13.6,9.9,20.1c15.3,26.5,37.2,47.7,63.3,61.9C135.7,321.3,132.7,318.3,130,315z"/>
<path class="st1" d="M301.7,306.6c-8.4,0.4-17.2,0.4-26.9-0.2c-0.3,0.3-0.5,0.5-0.8,0.8c-0.4,0.5-0.9,0.9-1.3,1.4
	c-14.4,14.4-29.8,24.8-45.8,31h0c-4.9,1.9-9.8,3.4-14.8,4.4c30.5,1,60.8-6.7,87.9-22.6c9.6-5.6,18.5-12.1,26.7-19.4
	c-1.7,0.7-3.5,1.3-5.6,1.9C315.6,305.3,309.6,306.2,301.7,306.6z"/>
<path class="st1" d="M359.8,232.7c-6.3,1.1-13.1,1.7-22,1.8c-5.8,0-11.7-0.1-18.1-0.5c-3.5,9.2-7.6,18.1-12,26.5
	c2,1.2,3.8,2.3,5.4,3.3c6.6,4.3,11.4,7.9,15.5,11.9c2.8,2.7,4.7,5.1,6.2,7.6c1.3,2.2,2.7,5.5,2.1,8.9c17.3-18.3,30.2-40.4,37.8-65
	c-1.1,0.9-2.4,1.6-4.1,2.4C366.7,231.3,362.8,232.2,359.8,232.7z"/>
<path class="st1" d="M281.6,50.3c0.4,2.3,0.7,4.8,1,7.8l0.2,0c0.6,0.1,1.2,0.2,1.9,0.2c7.3,0.7,12.9,0.8,18.1,0.4
	c3.3-0.3,6-0.7,8.4-1.4c-2.7-4.2-5.5-8.1-8.6-11.6c-5.8-6.9-12.4-12.7-19.4-17.3c-2-1.3-4-2.5-6.2-3.6c-1.8-0.7-3.6-1.4-5.6-2
	c1.5,1.9,2.9,4,4.1,6.5C278.2,34.8,280.2,41.7,281.6,50.3z"/>
<path class="st1" d="M228.8,38.3c-1.1,1.4-2.3,3-3.6,4.7c7.5,3.1,15.7,5.9,24.2,8.3c11,3.1,21.1,5.2,30.7,6.4
	c-0.3-2.5-0.7-4.7-1-6.9c-1.5-8.2-3.5-14.8-6.3-20.1c-2.3-4.5-6.3-10.2-12.5-11.6c-2.6-0.6-5.4-0.5-8.2,0.3
	c-2.6,0.8-5.4,2.1-8.3,4.1C238.9,27,234,31.8,228.8,38.3z"/>
<path class="st1" d="M305.7,260.7l0.2-0.4c-8.1-4.7-17.2-9.1-28.6-14c-7.4-3.1-15.3-6.1-24.1-9.2l-0.1,0.4c-0.1,0.3-0.2,0.6-0.3,0.8
	c-6,16.6-12.1,31.1-18.6,44.3c-2.6,5.2-5.2,10.1-7.8,14.7c12.7,2.6,24.4,4.5,35.9,5.9c3.7,0.4,7.5,0.8,11.7,1.1
	c12-12.3,22.5-26.7,31.2-42.6C305.3,261.4,305.5,261.1,305.7,260.7z"/>
<path class="st1" d="M305,44.1c3.1,3.8,6,7.9,8.7,12.3c0.9-0.4,1.7-0.8,2.3-1.2c1.1-0.7,2.5-1.9,3-3.7c0.2-0.9,0.2-1.8-0.1-2.9
	c-7.9-6.2-16.4-11.7-25.3-16.4C297.7,35.8,301.5,39.8,305,44.1z"/>
<path class="st1" d="M256.9,226.3c-1,2.9-2,5.9-3.1,9.1c8.9,3.4,17,6.8,24.8,10.3c10.4,4.7,19.4,9.3,27.6,14
	c4.4-8.2,8.4-16.9,11.8-25.8c-7.8-0.5-16-1.2-24.3-2.2C281.9,230.4,269.5,228.5,256.9,226.3z"/>
<path class="st1" d="M306.9,261.8l-0.3,0.5c-8.7,16-18.8,30.2-30.2,42.2c8.9,0.6,16.8,0.8,24.3,0.5c7.8-0.4,13.7-1.2,19.1-2.5
	c3.7-1,6.6-2.1,9-3.4c2.3-1.3,5.2-3.6,6.2-7c0.9-3.4-0.5-6.9-1.9-9.1c-1.4-2.4-3.4-4.8-6.1-7.4c-4-3.8-8.9-7.5-15.4-11.6
	c-1.4-0.9-2.7-1.7-4.4-2.6C307.2,261.4,307.1,261.6,306.9,261.8z"/>
<linearGradient id="SVGID_1_" gradientUnits="userSpaceOnUse" x1="-71.4332" y1="311.6451" x2="267.2523" y2="311.6451">
	<stop  offset="0" style="stop-color:#FFFFFF"/>
	<stop  offset="1" style="stop-color:#004062"/>
</linearGradient>
<path class="st2" d="M179.2,339.6c1.6,0,3.2-0.1,4.8-0.6c2.7-0.7,5.5-2,8.4-3.9c5-3.2,10-7.9,15.4-14.4c4.4-5.2,8.7-11.3,13.2-18.5
	c0.4-0.6,0.8-1.3,1.2-1.9l0.3-0.5c-11.8-2.1-24-4.8-36.2-7.8c-10.4-2.6-20.6-5.4-30.3-8.4c0.2,8.6,0.8,16.2,1.9,23.3
	c1.3,8.2,3.2,14.8,5.8,20.1c1.8,3.8,4.9,8.5,9.4,10.9c0.8,0.2,1.5,0.4,2.3,0.6C176.6,339,177.9,339.3,179.2,339.6z"/>
<linearGradient id="SVGID_2_" gradientUnits="userSpaceOnUse" x1="-71.4332" y1="323.0674" x2="267.2523" y2="323.0674">
	<stop  offset="0" style="stop-color:#FFFFFF"/>
	<stop  offset="1" style="stop-color:#004062"/>
</linearGradient>
<path class="st3" d="M300,321.4c9.6-5.6,18.5-12.1,26.7-19.4c-1.7,0.7-3.5,1.3-5.6,1.9c-5.5,1.4-11.5,2.2-19.3,2.7
	c-8.4,0.4-17.2,0.4-26.9-0.2c-0.3,0.3-0.5,0.5-0.8,0.8c-0.4,0.5-0.9,0.9-1.3,1.4c-14.4,14.4-29.8,24.8-45.8,31h0
	c-4.9,1.9-9.8,3.4-14.8,4.4C242.6,345,272.9,337.3,300,321.4z"/>
<linearGradient id="SVGID_3_" gradientUnits="userSpaceOnUse" x1="-71.4332" y1="138.5501" x2="202.0043" y2="138.5501">
	<stop  offset="0" style="stop-color:#FFFFFF"/>
	<stop  offset="1" style="stop-color:#004062"/>
</linearGradient>
<path class="st4" d="M58.3,138.5c0,0,0,0.1,0,0.1h0C58.3,138.6,58.3,138.5,58.3,138.5z"/>
<linearGradient id="SVGID_4_" gradientUnits="userSpaceOnUse" x1="-71.4332" y1="283.0685" x2="267.2523" y2="283.0685">
	<stop  offset="0" style="stop-color:#FFFFFF"/>
	<stop  offset="1" style="stop-color:#004062"/>
</linearGradient>
<path class="st5" d="M138.8,324.1c-3.1-2.8-6-5.8-8.8-9.1c-11.2-13.2-20.1-30.4-25.7-49.6c-0.1-0.2-0.1-0.4-0.2-0.6l-0.1-0.4
	c-10.4-4.7-19.2-9.4-27-14.3c-4.5-2.9-8.2-5.5-11.4-8.1c2.8,6.9,6.1,13.6,9.9,20.1C90.8,288.7,112.7,309.9,138.8,324.1z"/>
<linearGradient id="SVGID_5_" gradientUnits="userSpaceOnUse" x1="-71.4332" y1="259.7616" x2="267.2523" y2="259.7616">
	<stop  offset="0" style="stop-color:#FFFFFF"/>
	<stop  offset="1" style="stop-color:#004062"/>
</linearGradient>
<path class="st6" d="M370.5,229.6c-3.7,1.7-7.7,2.5-10.7,3.1c-6.3,1.1-13.1,1.7-22,1.8c-5.8,0-11.7-0.1-18.1-0.5
	c-3.5,9.2-7.6,18.1-12,26.5c2,1.2,3.8,2.3,5.4,3.3c6.6,4.3,11.4,7.9,15.5,11.9c2.8,2.7,4.7,5.1,6.2,7.6c1.3,2.2,2.7,5.5,2.1,8.9
	c17.3-18.3,30.2-40.4,37.8-65C373.4,228.1,372.1,228.9,370.5,229.6z"/>
<linearGradient id="SVGID_6_" gradientUnits="userSpaceOnUse" x1="-71.4332" y1="239.1838" x2="267.2523" y2="239.1838">
	<stop  offset="0" style="stop-color:#FFFFFF"/>
	<stop  offset="1" style="stop-color:#004062"/>
</linearGradient>
<path class="st7" d="M60.2,225.8c1.3,2.1,3.1,4.4,5.6,6.8c3.8,3.7,8.5,7.3,14.8,11.4c6.3,4.1,13.3,8,21.3,12
	c-2.5-10.8-4-22-4.7-33.5H58.9c0.2,0.6,0.3,1.2,0.5,1.8C59.6,224.7,59.9,225.3,60.2,225.8z"/>
<linearGradient id="SVGID_7_" gradientUnits="userSpaceOnUse" x1="-71.4332" y1="301.3587" x2="267.2523" y2="301.3587">
	<stop  offset="0" style="stop-color:#FFFFFF"/>
	<stop  offset="1" style="stop-color:#004062"/>
</linearGradient>
<path class="st8" d="M161,329.8c-2.9-5.6-5.1-12.5-6.7-21.1c-1.3-7-2.1-14.5-2.5-23.2c0-0.7,0-1.3-0.1-2c0-0.4,0-0.7,0-1.1
	c-14.2-4.5-27.2-9.2-39.7-14.4c-0.3-0.1-0.6-0.2-0.8-0.4c-0.2-0.1-0.5-0.2-0.7-0.3c5.2,17.4,12.8,32.3,22.5,44.2
	c5.7,7,12,12.9,18.9,17.6l0,0c2.1,1.4,4.3,2.8,6.6,4c2,0.8,4,1.5,6.1,2.2C163.3,333.7,162.1,331.9,161,329.8z"/>
<linearGradient id="SVGID_8_" gradientUnits="userSpaceOnUse" x1="-71.4332" y1="321.438" x2="267.2523" y2="321.438">
	<stop  offset="0" style="stop-color:#FFFFFF"/>
	<stop  offset="1" style="stop-color:#004062"/>
</linearGradient>
<path class="st9" d="M200.2,342.5c8.4-0.5,17-2.3,25.4-5.5c15.8-5.8,31.5-16.1,45.4-29.7c0.3-0.3,0.6-0.6,0.9-0.9
	c0.1-0.1,0.1-0.1,0.2-0.2c-3.1-0.2-6.2-0.5-9.3-0.8c-12.2-1.2-25.1-2.9-38.1-5.2c-5,8.7-10,16-15.1,22.4
	c-5.5,6.8-10.7,11.8-15.8,15.3c-2.1,1.4-4.2,2.5-6.2,3.4c2.6,0.5,5.3,0.9,7.9,1.3C197.1,342.6,198.7,342.6,200.2,342.5z"/>
<linearGradient id="SVGID_9_" gradientUnits="userSpaceOnUse" x1="-71.4332" y1="227.7729" x2="267.2523" y2="227.7729">
	<stop  offset="0" style="stop-color:#FFFFFF"/>
	<stop  offset="1" style="stop-color:#004062"/>
</linearGradient>
<path class="st10" d="M323.8,222.4c-1.1,3.4-2.3,6.8-3.5,10.1c5.9,0.4,11.3,0.6,16.6,0.6c8.9-0.1,15.6-0.6,21.8-1.7
	c4.4-0.8,7.6-1.7,10.5-3c1.9-0.9,3.4-1.8,4.6-2.8c0.7-0.6,1.4-1.3,1.8-2.1c0.1-0.4,0.2-0.8,0.3-1.1H323.8z"/>
<path class="st11" d="M383.8,222.4h-2.8h-4.8H376c-0.1,0.4-0.2,0.8-0.3,1.1c-0.3,1.2-0.7,2.5-1.1,3.7c-7.5,24.6-20.5,46.7-37.8,65
	c-3.2,3.4-6.6,6.7-10.1,9.8c-8.1,7.3-17.1,13.8-26.7,19.4c-27.1,15.9-57.4,23.5-87.9,22.6c-5.5-0.2-11.1-0.6-16.6-1.4
	c-2.6-0.4-5.3-0.8-7.9-1.3c-2.8-0.5-5.6-1.1-8.4-1.8c-1.3-0.3-2.6-0.6-3.8-1c-0.8-0.2-1.5-0.4-2.3-0.6c-2.8-0.8-5.6-1.7-8.4-2.6
	c-2-0.7-4.1-1.4-6.1-2.2c-6.8-2.6-13.5-5.7-19.8-9.1c-26.1-14.2-47.9-35.4-63.3-61.9c-3.8-6.5-7.1-13.2-9.9-20.1
	c-2.4-5.8-4.5-11.8-6.2-17.8c-0.2-0.6-0.4-1.2-0.5-1.8h-0.1h-5.7h-2.9h-0.1c3.9,15.2,9.9,30,18,44c23.2,40.1,60.5,68.7,105.1,80.4
	c14.6,3.9,29.4,5.8,44.1,5.8c30.2,0,60.1-8.1,87-23.8c40-23.4,68.5-61,80.3-105.8c0.1-0.2,0.1-0.4,0.2-0.6H383.8z"/>
<linearGradient id="SVGID_10_" gradientUnits="userSpaceOnUse" x1="-71.4332" y1="77.5636" x2="267.2523" y2="77.5636">
	<stop  offset="0" style="stop-color:#FFFFFF"/>
	<stop  offset="1" style="stop-color:#004062"/>
</linearGradient>
<path class="st12" d="M319.3,92.7c3,1.3,6,2.7,9,4.2l-0.1-0.4c-0.2-0.8-0.4-1.7-0.7-2.5c-3.8-13.1-9-25.1-15.6-35.7
	c-2.5,0.7-5.2,1.2-8.5,1.6c-5.5,0.5-11.5,0.5-18.3,0c-0.7,0-1.3-0.1-2-0.2l-0.1,0c0.6,5.9,0.9,12.2,0.9,18.9
	C296.1,82.9,308.1,87.7,319.3,92.7z"/>
<linearGradient id="SVGID_11_" gradientUnits="userSpaceOnUse" x1="-71.4332" y1="88.8817" x2="267.2523" y2="88.8817">
	<stop  offset="0" style="stop-color:#FFFFFF"/>
	<stop  offset="1" style="stop-color:#004062"/>
</linearGradient>
<path class="st13" d="M320,51.9c-0.5,2-2,3.3-3.2,4.1c-0.7,0.5-1.5,0.9-2.5,1.3c6.4,10.7,11.5,22.9,15.2,36.3
	c0.3,1.2,0.6,2.3,0.9,3.5l0.2,0.9c8.7,4.3,16.2,8.5,23.2,12.9c6.7,4.3,11.5,8,15.5,11.9c1.9,1.9,3.5,3.6,4.7,5.4
	c-3.6-11.2-8.4-22.1-14.5-32.6c-8.6-14.8-19.2-28-31.5-39.2c-0.9-0.8-1.9-1.7-2.8-2.5c-0.3-0.2-0.5-0.5-0.8-0.7
	c-1.4-1.2-2.8-2.4-4.2-3.5c-0.1-0.1-0.2-0.1-0.2-0.2C320.2,50.4,320.2,51.2,320,51.9z"/>
<linearGradient id="SVGID_12_" gradientUnits="userSpaceOnUse" x1="-71.4332" y1="100.6215" x2="267.2523" y2="100.6215">
	<stop  offset="0" style="stop-color:#FFFFFF"/>
	<stop  offset="1" style="stop-color:#004062"/>
</linearGradient>
<path class="st14" d="M212.7,62.6c-2.6,4.6-5.1,9.5-7.8,14.8c-6.4,13-12.4,27.3-18.3,43.8c0,0.1-0.1,0.2-0.1,0.3c0,0,0,0.1,0,0.1
	c13,4.7,26.6,9.1,40.5,13c5,1.4,9.9,2.7,14.6,3.9h35.4c2.2-14.4,3.7-28.4,4.3-41.6c0.3-5.5,0.4-11.2,0.3-16.9
	c-11.8-3.8-24-7.2-37.4-10.6C233.7,66.9,223.2,64.6,212.7,62.6z"/>
<linearGradient id="SVGID_13_" gradientUnits="userSpaceOnUse" x1="-71.4332" y1="44.3266" x2="267.2523" y2="44.3266">
	<stop  offset="0" style="stop-color:#FFFFFF"/>
	<stop  offset="1" style="stop-color:#004062"/>
</linearGradient>
<path class="st15" d="M305,44.1c3.1,3.8,6,7.9,8.7,12.3c0.9-0.4,1.7-0.8,2.3-1.2c1.1-0.7,2.5-1.9,3-3.7c0.2-0.9,0.2-1.8-0.1-2.9
	c-6.8-5.3-14-10.1-21.5-14.3c-0.2-0.1-0.5-0.3-0.7-0.4c-0.6-0.3-1.1-0.6-1.7-0.9c-0.5-0.2-0.9-0.5-1.4-0.7
	C297.7,35.8,301.5,39.8,305,44.1z"/>
<linearGradient id="SVGID_14_" gradientUnits="userSpaceOnUse" x1="-71.4332" y1="228.643" x2="267.2523" y2="228.643">
	<stop  offset="0" style="stop-color:#FFFFFF"/>
	<stop  offset="1" style="stop-color:#004062"/>
</linearGradient>
<path class="st16" d="M255.5,226c-6.1-1.1-12.3-2.3-18.5-3.6h-21.4c12.8,3.9,25.2,8,36.8,12.4C253.5,232,254.5,229.1,255.5,226z"/>
<linearGradient id="SVGID_15_" gradientUnits="userSpaceOnUse" x1="-71.4332" y1="137.5947" x2="267.2523" y2="137.5947">
	<stop  offset="0" style="stop-color:#FFFFFF"/>
	<stop  offset="1" style="stop-color:#004062"/>
</linearGradient>
<path class="st17" d="M180.8,138.6h11c-3.5-0.7-6.9-1.4-10.4-2C181.2,137.3,181,137.9,180.8,138.6z"/>
<linearGradient id="SVGID_16_" gradientUnits="userSpaceOnUse" x1="-71.4332" y1="132.7919" x2="267.2523" y2="132.7919">
	<stop  offset="0" style="stop-color:#FFFFFF"/>
	<stop  offset="1" style="stop-color:#004062"/>
</linearGradient>
<path class="st18" d="M224.8,138.6c-14.3-3.6-27.4-7.4-40.2-11.6l-0.3,0.9c-0.5,1.5-1,2.9-1.5,4.4c8.9,1.9,17.8,4,27,6.4H224.8z"/>
<linearGradient id="SVGID_17_" gradientUnits="userSpaceOnUse" x1="-71.4332" y1="19.0497" x2="267.2523" y2="19.0497">
	<stop  offset="0" style="stop-color:#FFFFFF"/>
	<stop  offset="1" style="stop-color:#004062"/>
</linearGradient>
<path class="st19" d="M190.8,20.9c0.6,1.1,1.4,2.2,2.5,3.5l0,0c0,0,0,0,0.1,0.1c5-2.7,10.1-5,15.2-6.9c4.3-1.6,8.7-2.8,13.1-3.8
	c-1.3,0-2.5-0.1-3.8-0.1c-9,0-18,0.8-26.8,2.2c-0.4,0.5-0.7,1-0.8,1.5C189.9,18.4,190.2,19.6,190.8,20.9z"/>
<linearGradient id="SVGID_18_" gradientUnits="userSpaceOnUse" x1="-71.4332" y1="99.156" x2="267.2523" y2="99.156">
	<stop  offset="0" style="stop-color:#FFFFFF"/>
	<stop  offset="1" style="stop-color:#004062"/>
</linearGradient>
<path class="st20" d="M95.3,121c5.8,0,12,0.2,18.7,0.7c2.8-7.1,6-14.2,9.3-20.8c-2.4-1.4-4.6-2.7-6.6-3.9c-4.6-2.9-10.6-7-16.1-12.2
	c-2.1-2-4.7-4.7-6.8-8.2c-0.8-1.4-1.4-2.7-1.9-4c-13.1,15.6-23.2,33.5-29.9,53.1c3.9-1.6,7.7-2.4,10.7-3
	C81.1,121.3,89.2,121.1,95.3,121z"/>
<linearGradient id="SVGID_19_" gradientUnits="userSpaceOnUse" x1="-71.4332" y1="132.9814" x2="267.2523" y2="132.9814">
	<stop  offset="0" style="stop-color:#FFFFFF"/>
	<stop  offset="1" style="stop-color:#004062"/>
</linearGradient>
<path class="st21" d="M108.1,138.6c1.1-3.6,2.4-7.3,3.7-10.9c-4.9-0.2-9.8-0.4-14.5-0.4c-0.7,0-1.3,0-2,0
	c-8.6,0.1-15.4,0.7-21.3,1.7c-4,0.7-7.2,1.7-9.8,2.8c-2.4,1.1-4.3,2.5-5.2,4c-0.1,0.3-0.2,0.7-0.3,1c-0.1,0.5-0.3,1-0.4,1.6
	c0,0,0,0.1,0,0.1H108.1z"/>
<linearGradient id="SVGID_20_" gradientUnits="userSpaceOnUse" x1="-71.4332" y1="28.693" x2="267.2523" y2="28.693">
	<stop  offset="0" style="stop-color:#FFFFFF"/>
	<stop  offset="1" style="stop-color:#004062"/>
</linearGradient>
<path class="st22" d="M234.7,16.1c-8.3,0.7-16.8,2.7-25.2,6c-4.1,1.6-8.3,3.5-12.3,5.8c0.9,0.7,1.9,1.4,2.9,2.2
	c4.4,3.1,9.5,6,15.6,8.8c1.8,0.8,3.7,1.7,5.9,2.7c1.8-2.4,3.5-4.6,5.1-6.4c5.7-6.7,11-11.6,16.2-15.1c2.1-1.4,4.3-2.5,6.4-3.3
	c-1.5-0.3-3-0.6-4.5-0.8C241.3,15.8,237.9,15.8,234.7,16.1z"/>
<linearGradient id="SVGID_21_" gradientUnits="userSpaceOnUse" x1="-71.4332" y1="38.3385" x2="267.2523" y2="38.3385">
	<stop  offset="0" style="stop-color:#FFFFFF"/>
	<stop  offset="1" style="stop-color:#004062"/>
</linearGradient>
<path class="st23" d="M252,19.6c-2.6,0.8-5.4,2.1-8.3,4.1c-4.9,3.4-9.8,8.2-15,14.7c-1.1,1.4-2.3,3-3.6,4.7
	c7.5,3.1,15.7,5.9,24.2,8.3c11,3.1,21.1,5.2,30.7,6.4c-0.3-2.5-0.7-4.7-1-6.9c-1.5-8.2-3.5-14.8-6.3-20.1
	c-2.1-4.1-5.6-9.1-10.9-11.1c-0.7-0.2-1.4-0.4-2.1-0.6h0c-0.1,0-0.3-0.1-0.4-0.1C257,18.7,254.5,18.8,252,19.6z"/>
<linearGradient id="SVGID_22_" gradientUnits="userSpaceOnUse" x1="-71.4332" y1="74.7324" x2="267.2523" y2="74.7324">
	<stop  offset="0" style="stop-color:#FFFFFF"/>
	<stop  offset="1" style="stop-color:#004062"/>
</linearGradient>
<path class="st24" d="M99.9,72.6c1.2,2.1,3.1,4.3,5.6,6.8c3.8,3.7,8.6,7.3,14.9,11.4c2,1.3,4.1,2.5,6.4,3.9c0-0.1,0.1-0.1,0.1-0.2
	c8-14.5,17.4-27.7,28-39.3c-9.1-0.5-17.2-0.6-25-0.2c-7.5,0.4-13.4,1.2-18.6,2.6c-3.3,0.9-6,1.9-8.1,3.1c-1.6,1.5-3.1,3.1-4.6,4.7
	c-0.1,0.1-0.1,0.3-0.1,0.5C97.8,67.7,98.4,70,99.9,72.6z"/>
<linearGradient id="SVGID_23_" gradientUnits="userSpaceOnUse" x1="-71.4332" y1="222.8918" x2="267.2523" y2="222.8918">
	<stop  offset="0" style="stop-color:#FFFFFF"/>
	<stop  offset="1" style="stop-color:#004062"/>
</linearGradient>
<path class="st25" d="M256.7,222.4h-4.8c1.5,0.3,3,0.6,4.4,0.9C256.5,223.1,256.6,222.7,256.7,222.4z"/>
<linearGradient id="SVGID_24_" gradientUnits="userSpaceOnUse" x1="-71.4332" y1="33.5138" x2="267.2523" y2="33.5138">
	<stop  offset="0" style="stop-color:#FFFFFF"/>
	<stop  offset="1" style="stop-color:#004062"/>
</linearGradient>
<path class="st26" d="M160,49.7c0.2-0.2,0.4-0.4,0.7-0.7c0.3-0.4,0.7-0.7,1-1c8.9-8.6,18.3-15.9,28.2-21.7c-0.9-1.1-1.6-2.1-2.2-3.2
	c-0.5-1-0.8-1.9-1-2.9c-0.2-1.2-0.2-2.4,0.1-3.5c0,0,0,0,0,0c-17.9,3.5-35.4,10.1-51.7,19.6c-7.1,4.2-13.9,8.9-20.3,13.9
	c4.3-0.8,9-1.2,14.6-1.5C138.7,48.4,148.4,48.7,160,49.7z"/>
<linearGradient id="SVGID_25_" gradientUnits="userSpaceOnUse" x1="-71.4332" y1="40.8333" x2="267.2523" y2="40.8333">
	<stop  offset="0" style="stop-color:#FFFFFF"/>
	<stop  offset="1" style="stop-color:#004062"/>
</linearGradient>
<path class="st27" d="M281.6,50.3c0.4,2.3,0.7,4.8,1,7.8l0.2,0c0.6,0.1,1.2,0.2,1.9,0.2c7.3,0.7,12.9,0.8,18.1,0.4
	c3.3-0.3,6-0.7,8.4-1.4c-2.7-4.2-5.5-8.1-8.6-11.6c-5.8-6.9-12.4-12.7-19.4-17.3c-1.9-1.2-3.8-2.3-5.9-3.5c-1.9-0.8-3.9-1.5-5.9-2.2
	c1.5,1.9,2.8,4,4,6.4C278.2,34.8,280.2,41.7,281.6,50.3z"/>
<linearGradient id="SVGID_26_" gradientUnits="userSpaceOnUse" x1="-71.4332" y1="242.998" x2="267.2523" y2="242.998">
	<stop  offset="0" style="stop-color:#FFFFFF"/>
	<stop  offset="1" style="stop-color:#004062"/>
</linearGradient>
<path class="st28" d="M256.9,226.3c-1,2.9-2,5.9-3.1,9.1c8.9,3.4,17,6.8,24.8,10.3c10.4,4.7,19.4,9.3,27.6,14
	c4.4-8.2,8.4-16.9,11.8-25.8c-7.8-0.5-16-1.2-24.3-2.2C281.9,230.4,269.5,228.5,256.9,226.3z"/>
<linearGradient id="SVGID_27_" gradientUnits="userSpaceOnUse" x1="-71.4332" y1="283.2099" x2="267.2523" y2="283.2099">
	<stop  offset="0" style="stop-color:#FFFFFF"/>
	<stop  offset="1" style="stop-color:#004062"/>
</linearGradient>
<path class="st29" d="M306.9,261.8l-0.3,0.5c-8.7,16-18.8,30.2-30.2,42.2c8.9,0.6,16.8,0.8,24.3,0.5c7.8-0.4,13.7-1.2,19.1-2.5
	c3.7-1,6.6-2.1,9-3.4c2.3-1.3,5.2-3.6,6.2-7c0.9-3.4-0.5-6.9-1.9-9.1c-1.4-2.4-3.4-4.8-6.1-7.4c-4-3.8-8.9-7.5-15.4-11.6
	c-1.4-0.9-2.7-1.7-4.4-2.6C307.2,261.4,307.1,261.6,306.9,261.8z"/>
<linearGradient id="SVGID_28_" gradientUnits="userSpaceOnUse" x1="-71.4332" y1="259.6957" x2="267.2523" y2="259.6957">
	<stop  offset="0" style="stop-color:#FFFFFF"/>
	<stop  offset="1" style="stop-color:#004062"/>
</linearGradient>
<path class="st30" d="M251.8,236.6c-14.9-5.2-30.5-9.8-47.9-14.1c-0.2,0-0.4-0.1-0.5-0.1h-42.7c-2.2,13.9-3.6,26.6-4.3,38.7
	c-0.4,6.1-0.5,11.7-0.6,17c10.1,3.4,20.4,6.7,30.9,9.6c12.8,3.6,25.4,6.7,37.5,9.2c2.9-5,5.7-10.1,8.2-15.1
	C239.4,268,245.9,252.8,251.8,236.6z"/>
<linearGradient id="SVGID_29_" gradientUnits="userSpaceOnUse" x1="-71.4332" y1="227.4309" x2="267.2523" y2="227.4309">
	<stop  offset="0" style="stop-color:#FFFFFF"/>
	<stop  offset="1" style="stop-color:#004062"/>
</linearGradient>
<path class="st31" d="M257.8,223.7c12.4,2.5,24,4.5,35.3,6.1c9.7,1.3,17.8,2.1,25.5,2.7c1.3-3.3,2.4-6.7,3.6-10h-64
	C258.1,222.8,257.9,223.2,257.8,223.7z"/>
<linearGradient id="SVGID_30_" gradientUnits="userSpaceOnUse" x1="-71.4332" y1="270.7738" x2="267.2523" y2="270.7738">
	<stop  offset="0" style="stop-color:#FFFFFF"/>
	<stop  offset="1" style="stop-color:#004062"/>
</linearGradient>
<path class="st32" d="M305.7,260.7l0.2-0.4c-8.1-4.7-17.2-9.1-28.6-14c-7.4-3.1-15.3-6.1-24.1-9.2l-0.1,0.4
	c-0.1,0.3-0.2,0.6-0.3,0.8c-6,16.6-12.1,31.1-18.6,44.3c-2.6,5.2-5.2,10.1-7.8,14.7c12.7,2.6,24.4,4.5,35.9,5.9
	c3.7,0.4,7.5,0.8,11.7,1.1c12-12.3,22.5-26.7,31.2-42.6C305.3,261.4,305.5,261.1,305.7,260.7z"/>
<linearGradient id="SVGID_31_" gradientUnits="userSpaceOnUse" x1="-71.4332" y1="109.6974" x2="267.2523" y2="109.6974">
	<stop  offset="0" style="stop-color:#FFFFFF"/>
	<stop  offset="1" style="stop-color:#004062"/>
</linearGradient>
<path class="st33" d="M317.8,93.4c-10.8-4.5-21.9-8.6-34.1-12.6c0,5-0.2,10.3-0.5,16.3c-0.7,12.9-2.3,26.6-4.7,41.5h55.9
	c-0.6-14-2.5-27.5-5.9-40.4C325.2,96.6,321.6,95,317.8,93.4z"/>
<linearGradient id="SVGID_32_" gradientUnits="userSpaceOnUse" x1="-71.4332" y1="118.9533" x2="267.2523" y2="118.9533">
	<stop  offset="0" style="stop-color:#FFFFFF"/>
	<stop  offset="1" style="stop-color:#004062"/>
</linearGradient>
<path class="st34" d="M367.8,122.6c-4.1-3.9-8.8-7.5-15.4-11.7c-6.4-4-13.4-7.8-21.4-11.6c3,12.4,4.7,25.6,5.2,39.3h39.8
	c0.6-3.3-0.7-6.5-2-8.6C372.5,127.6,370.5,125.2,367.8,122.6z"/>
<linearGradient id="SVGID_33_" gradientUnits="userSpaceOnUse" x1="-71.4332" y1="43.8676" x2="267.2523" y2="43.8676">
	<stop  offset="0" style="stop-color:#FFFFFF"/>
	<stop  offset="1" style="stop-color:#004062"/>
</linearGradient>
<path class="st35" d="M168.9,50.6c13.4,1.6,27,3.9,41.8,7.1l0.2-0.3c0.7-1.1,1.4-2.3,2.1-3.4c2.1-3.3,4.2-6.5,6.3-9.5
	c-1.9-0.8-3.5-1.4-4.9-2.1c-6.7-3.1-11.8-5.8-16.3-8.9c-1.7-1.2-3.3-2.4-4.7-3.6c-9.1,5.4-17.9,12.3-26.4,20.5
	c0.3,0,0.6,0.1,0.9,0.1L168.9,50.6z"/>
<linearGradient id="SVGID_34_" gradientUnits="userSpaceOnUse" x1="-71.4332" y1="87.8488" x2="267.2523" y2="87.8488">
	<stop  offset="0" style="stop-color:#FFFFFF"/>
	<stop  offset="1" style="stop-color:#004062"/>
</linearGradient>
<path class="st36" d="M181.8,120c5.9-16.1,12.4-31.3,19.5-45.2c2.2-4.3,4.5-8.7,7-13c-13.8-2.5-27.4-4.4-40.2-5.6h0
	c-1.8-0.2-3.7-0.3-6.1-0.5c-11.3,11.9-21.4,26.1-30,42l0,0c6.7,3.7,14,7.3,22.3,11C163,112.6,172.3,116.4,181.8,120z"/>
<linearGradient id="SVGID_35_" gradientUnits="userSpaceOnUse" x1="-71.4332" y1="117.5177" x2="267.2523" y2="117.5177">
	<stop  offset="0" style="stop-color:#FFFFFF"/>
	<stop  offset="1" style="stop-color:#004062"/>
</linearGradient>
<path class="st37" d="M177.9,131.2c0.7-1.9,1.3-3.9,2-5.8c-9.8-3.3-19.1-6.9-27.9-10.5l0,0c-8.8-3.8-16.4-7.4-23.3-11
	c-3,5.9-5.7,12.1-8.3,18.4c5.8,0.5,12.1,1.2,19.2,2.2C152,126.2,164.5,128.4,177.9,131.2z"/>
<linearGradient id="SVGID_36_" gradientUnits="userSpaceOnUse" x1="-71.4332" y1="61.8639" x2="267.2523" y2="61.8639">
	<stop  offset="0" style="stop-color:#FFFFFF"/>
	<stop  offset="1" style="stop-color:#004062"/>
</linearGradient>
<path class="st38" d="M245.7,66.4c12.3,3.5,24.4,7.3,35.8,11.3c0-1.4-0.1-2.8-0.1-4.2c-0.2-4.9-0.6-9.7-1.1-14.1
	c-10.1-1-20.3-2.8-31.3-5.4h0c-9.5-2.3-17.9-4.9-25.9-8c-2.7,3.9-5.4,8.2-8.1,12.7C225,60.9,235.3,63.5,245.7,66.4z"/>
<linearGradient id="SVGID_37_" gradientUnits="userSpaceOnUse" x1="-71.4332" y1="249.5647" x2="267.2523" y2="249.5647">
	<stop  offset="0" style="stop-color:#FFFFFF"/>
	<stop  offset="1" style="stop-color:#004062"/>
</linearGradient>
<path class="st39" d="M108.3,259.1c1.9,0.9,3.8,1.8,6,2.8c11.8,5.3,24.3,10.3,37.3,14.9c0-5.1,0-10.2,0.3-15.1
	c0.6-12.6,1.9-25.7,3.9-39.2h-52.7C103.7,235.2,105.5,247.5,108.3,259.1z"/>
<linearGradient id="SVGID_38_" gradientUnits="userSpaceOnUse" x1="-71.4332" y1="133.3556" x2="267.2523" y2="133.3556">
	<stop  offset="0" style="stop-color:#FFFFFF"/>
	<stop  offset="1" style="stop-color:#004062"/>
</linearGradient>
<path class="st40" d="M176.4,135.7c-13.2-2.4-25.5-4.2-37.7-5.6c-7-0.8-13.9-1.5-20.5-1.9c-1.3,3.5-2.5,7-3.6,10.5h60.8
	C175.8,137.6,176.1,136.6,176.4,135.7z"/>
<path class="st41" d="M295,33c0.6,0.3,1.1,0.6,1.7,0.9C296.1,33.6,295.5,33.3,295,33z"/>
<path class="st41" d="M313.8,44.7C313.8,44.7,313.7,44.7,313.8,44.7C313.7,44.7,313.8,44.7,313.8,44.7z"/>
<path class="st11" d="M320.1,49.5C320.1,49.5,320.1,49.5,320.1,49.5c0.1,0.1,0.2,0.1,0.2,0.2C320.2,49.6,320.2,49.6,320.1,49.5z"/>
<path class="st11" d="M293.6,32.2C293.6,32.2,293.6,32.3,293.6,32.2c0.5,0.3,0.9,0.5,1.4,0.8C294.5,32.7,294.1,32.5,293.6,32.2z"/>
<path class="st11" d="M296.6,33.9c0.2,0.1,0.5,0.3,0.7,0.4C297.1,34.2,296.9,34,296.6,33.9z"/>
<g>
	<path class="st1" d="M259.7,19.2c-0.1,0-0.3-0.1-0.4-0.1c-2.3-0.4-4.8-0.2-7.3,0.5c-2.6,0.8-5.4,2.1-8.3,4.1
		c-4.9,3.4-9.8,8.2-15,14.7c-1.1,1.4-2.3,3-3.6,4.7c7.5,3.1,15.7,5.9,24.2,8.3c11,3.1,21.1,5.2,30.7,6.4c-0.3-2.5-0.7-4.7-1-6.9
		c-1.5-8.2-3.5-14.8-6.3-20.1c-2.1-4.1-5.6-9.1-10.9-11.1C261.1,19.6,260.4,19.4,259.7,19.2L259.7,19.2z"/>
	<path class="st1" d="M255.5,226c-6.1-1.1-12.3-2.3-18.5-3.6h-21.4c12.8,3.9,25.2,8,36.8,12.4C253.5,232,254.5,229.1,255.5,226z"/>
	<path class="st1" d="M319.3,92.7c3,1.3,6,2.7,9,4.2l-0.1-0.4c-0.2-0.8-0.4-1.7-0.7-2.5c-3.8-13.1-9-25.1-15.6-35.7
		c-2.5,0.7-5.2,1.2-8.5,1.6c-5.5,0.5-11.5,0.5-18.3,0c-0.7,0-1.3-0.1-2-0.2l-0.1,0c0.6,5.9,0.9,12.2,0.9,18.9
		C296.1,82.9,308.1,87.7,319.3,92.7z"/>
	<path class="st1" d="M212.7,62.6c-2.6,4.6-5.1,9.5-7.8,14.8c-6.4,13-12.4,27.3-18.3,43.8c0,0.1-0.1,0.2-0.1,0.3c0,0,0,0.1,0,0.1
		c13,4.7,26.6,9.1,40.5,13c5,1.4,9.9,2.7,14.6,3.9h35.4c2.2-14.4,3.7-28.4,4.3-41.6c0.3-5.5,0.4-11.2,0.3-16.9
		c-11.8-3.8-24-7.2-37.4-10.6C233.7,66.9,223.2,64.6,212.7,62.6z"/>
	<path class="st1" d="M180.8,138.6h11c-3.5-0.7-6.9-1.4-10.4-2C181.2,137.3,181,137.9,180.8,138.6z"/>
	<path class="st1" d="M224.8,138.6c-14.3-3.6-27.4-7.4-40.2-11.6l-0.3,0.9c-0.5,1.5-1,2.9-1.5,4.4c8.9,1.9,17.8,4,27,6.4H224.8z"/>
	<path class="st1" d="M296.6,33.9c-0.6-0.3-1.1-0.6-1.7-0.9c-0.5-0.3-0.9-0.5-1.4-0.8c0,0,0,0,0,0c4.1,3.6,7.9,7.5,11.4,11.8
		c3.1,3.8,6,7.9,8.7,12.3c0.9-0.4,1.7-0.8,2.3-1.2c1.1-0.7,2.5-1.9,3-3.7c0.2-0.9,0.2-1.8-0.1-2.9l0,0c-6.8-5.3-14-10.1-21.5-14.3
		C297.1,34.2,296.9,34,296.6,33.9z"/>
	<path class="st1" d="M234.7,16.1c-8.3,0.7-16.8,2.7-25.2,6c-4.1,1.6-8.3,3.5-12.3,5.8c0.9,0.7,1.9,1.4,2.9,2.2
		c4.4,3.1,9.5,6,15.6,8.8c1.8,0.8,3.7,1.7,5.9,2.7c1.8-2.4,3.5-4.6,5.1-6.4c5.7-6.7,11-11.6,16.2-15.1c2.1-1.4,4.3-2.5,6.4-3.3
		c-1.5-0.3-3-0.6-4.5-0.8C241.3,15.8,237.9,15.8,234.7,16.1z"/>
	<path class="st1" d="M275.4,29.1c2.8,5.6,4.8,12.6,6.2,21.2c0.4,2.3,0.7,4.8,1,7.8l0.2,0c0.6,0.1,1.2,0.2,1.9,0.2
		c7.3,0.7,12.9,0.8,18.1,0.4c3.3-0.3,6-0.7,8.4-1.4c-2.7-4.2-5.5-8.1-8.6-11.6c-5.8-6.9-12.4-12.7-19.4-17.3
		c-1.9-1.2-3.8-2.3-5.9-3.5c-1.9-0.8-3.9-1.5-5.9-2.2C272.9,24.6,274.2,26.7,275.4,29.1z"/>
	<path class="st1" d="M72.8,122.8c8.3-1.4,16.4-1.7,22.6-1.7c5.8,0,12,0.2,18.7,0.7c2.8-7.1,6-14.2,9.3-20.8
		c-2.4-1.4-4.6-2.7-6.6-3.9c-4.6-2.9-10.6-7-16.1-12.2c-2.1-2-4.7-4.7-6.8-8.2c-0.8-1.4-1.4-2.7-1.9-4
		c-13.1,15.6-23.2,33.5-29.9,53.1C66,124.1,69.8,123.3,72.8,122.8z"/>
	<path class="st1" d="M98.5,65.4c-0.1,0.1-0.1,0.3-0.1,0.5c-0.5,1.8,0,4.2,1.5,6.7c1.2,2.1,3.1,4.3,5.6,6.8
		c3.8,3.7,8.6,7.3,14.9,11.4c2,1.3,4.1,2.5,6.4,3.9c0-0.1,0.1-0.1,0.1-0.2c8-14.5,17.4-27.7,28-39.3c-9.1-0.5-17.2-0.6-25-0.2
		c-7.5,0.4-13.4,1.2-18.6,2.6c-3.3,0.9-6,1.9-8.1,3.1C101.5,62.2,100,63.8,98.5,65.4z"/>
	<path class="st1" d="M114.9,50.3c4.3-0.8,9-1.2,14.6-1.5c9.2-0.4,18.9-0.1,30.5,1c0.2-0.2,0.4-0.4,0.7-0.7c0.3-0.4,0.7-0.7,1-1
		c8.9-8.6,18.3-15.9,28.2-21.7c-0.9-1.1-1.6-2.1-2.2-3.2c-0.5-1-0.8-1.9-1-2.9c-0.2-1.2-0.2-2.4,0.1-3.5c0,0,0,0,0,0
		c-17.9,3.5-35.4,10.1-51.7,19.6C128,40.5,121.2,45.2,114.9,50.3z"/>
	<path class="st1" d="M58.3,138.5c0,0,0,0.1,0,0.1h0h49.8c1.1-3.6,2.4-7.3,3.7-10.9c-4.9-0.2-9.8-0.4-14.5-0.4c-0.7,0-1.3,0-2,0
		c-8.6,0.1-15.4,0.7-21.3,1.7c-4,0.7-7.2,1.7-9.8,2.8c-2.4,1.1-4.3,2.5-5.2,4c-0.1,0.3-0.2,0.7-0.3,1
		C58.6,137.5,58.5,138,58.3,138.5z"/>
	<path class="st1" d="M191.1,15.9c-0.4,0.5-0.7,1-0.8,1.5c-0.3,0.9,0,2.2,0.6,3.4c0.6,1.1,1.4,2.2,2.5,3.5l0,0c0,0,0,0,0.1,0.1
		c5-2.7,10.1-5,15.2-6.9c4.3-1.6,8.7-2.8,13.1-3.8c-1.3,0-2.5-0.1-3.8-0.1C208.9,13.7,199.9,14.5,191.1,15.9z"/>
	<path class="st1" d="M306.9,261.8l-0.3,0.5c-8.7,16-18.8,30.2-30.2,42.2c8.9,0.6,16.8,0.8,24.3,0.5c7.8-0.4,13.7-1.2,19.1-2.5
		c3.7-1,6.6-2.1,9-3.4c2.3-1.3,5.2-3.6,6.2-7c0.9-3.4-0.5-6.9-1.9-9.1c-1.4-2.4-3.4-4.8-6.1-7.4c-4-3.8-8.9-7.5-15.4-11.6
		c-1.4-0.9-2.7-1.7-4.4-2.6C307.2,261.4,307.1,261.6,306.9,261.8z"/>
	<path class="st1" d="M108.3,259.1c1.9,0.9,3.8,1.8,6,2.8c11.8,5.3,24.3,10.3,37.3,14.9c0-5.1,0-10.2,0.3-15.1
		c0.6-12.6,1.9-25.7,3.9-39.2h-52.7C103.7,235.2,105.5,247.5,108.3,259.1z"/>
	<path class="st1" d="M305.7,260.7l0.2-0.4c-8.1-4.7-17.2-9.1-28.6-14c-7.4-3.1-15.3-6.1-24.1-9.2l-0.1,0.4
		c-0.1,0.3-0.2,0.6-0.3,0.8c-6,16.6-12.1,31.1-18.6,44.3c-2.6,5.2-5.2,10.1-7.8,14.7c12.7,2.6,24.4,4.5,35.9,5.9
		c3.7,0.4,7.5,0.8,11.7,1.1c12-12.3,22.5-26.7,31.2-42.6C305.3,261.4,305.5,261.1,305.7,260.7z"/>
	<path class="st1" d="M257.8,223.7c12.4,2.5,24,4.5,35.3,6.1c9.7,1.3,17.8,2.1,25.5,2.7c1.3-3.3,2.4-6.7,3.6-10h-64
		C258.1,222.8,257.9,223.2,257.8,223.7z"/>
	<path class="st1" d="M251.8,236.6c-14.9-5.2-30.5-9.8-47.9-14.1c-0.2,0-0.4-0.1-0.5-0.1h-42.7c-2.2,13.9-3.6,26.6-4.3,38.7
		c-0.4,6.1-0.5,11.7-0.6,17c10.1,3.4,20.4,6.7,30.9,9.6c12.8,3.6,25.4,6.7,37.5,9.2c2.9-5,5.7-10.1,8.2-15.1
		C239.4,268,245.9,252.8,251.8,236.6z"/>
	<path class="st1" d="M256.9,226.3c-1,2.9-2,5.9-3.1,9.1c8.9,3.4,17,6.8,24.8,10.3c10.4,4.7,19.4,9.3,27.6,14
		c4.4-8.2,8.4-16.9,11.8-25.8c-7.8-0.5-16-1.2-24.3-2.2C281.9,230.4,269.5,228.5,256.9,226.3z"/>
	<path class="st1" d="M256.7,222.4h-4.8c1.5,0.3,3,0.6,4.4,0.9C256.5,223.1,256.6,222.7,256.7,222.4z"/>
	<path class="st1" d="M317.8,93.4c-10.8-4.5-21.9-8.6-34.1-12.6c0,5-0.2,10.3-0.5,16.3c-0.7,12.9-2.3,26.6-4.7,41.5h55.9
		c-0.6-14-2.5-27.5-5.9-40.4C325.2,96.6,321.6,95,317.8,93.4z"/>
	<path class="st1" d="M367.8,122.6c-4.1-3.9-8.8-7.5-15.4-11.7c-6.4-4-13.4-7.8-21.4-11.6c3,12.4,4.7,25.6,5.2,39.3h39.8
		c0.6-3.3-0.7-6.5-2-8.6C372.5,127.6,370.5,125.2,367.8,122.6z"/>
	<path class="st1" d="M168.9,50.6c13.4,1.6,27,3.9,41.8,7.1l0.2-0.3c0.7-1.1,1.4-2.3,2.1-3.4c2.1-3.3,4.2-6.5,6.3-9.5
		c-1.9-0.8-3.5-1.4-4.9-2.1c-6.7-3.1-11.8-5.8-16.3-8.9c-1.7-1.2-3.3-2.4-4.7-3.6c-9.1,5.4-17.9,12.3-26.4,20.5
		c0.3,0,0.6,0.1,0.9,0.1L168.9,50.6z"/>
	<path class="st1" d="M181.8,120c5.9-16.1,12.4-31.3,19.5-45.2c2.2-4.3,4.5-8.7,7-13c-13.8-2.5-27.4-4.4-40.2-5.6h0
		c-1.8-0.2-3.7-0.3-6.1-0.5c-11.3,11.9-21.4,26.1-30,42l0,0c6.7,3.7,14,7.3,22.3,11C163,112.6,172.3,116.4,181.8,120z"/>
	<path class="st1" d="M177.9,131.2c0.7-1.9,1.3-3.9,2-5.8c-9.8-3.3-19.1-6.9-27.9-10.5l0,0c-8.8-3.8-16.4-7.4-23.3-11
		c-3,5.9-5.7,12.1-8.3,18.4c5.8,0.5,12.1,1.2,19.2,2.2C152,126.2,164.5,128.4,177.9,131.2z"/>
	<path class="st1" d="M176.4,135.7c-13.2-2.4-25.5-4.2-37.7-5.6c-7-0.8-13.9-1.5-20.5-1.9c-1.3,3.5-2.5,7-3.6,10.5h60.8
		C175.8,137.6,176.1,136.6,176.4,135.7z"/>
	<path class="st1" d="M245.7,66.4c12.3,3.5,24.4,7.3,35.8,11.3c0-1.4-0.1-2.8-0.1-4.2c-0.2-4.9-0.6-9.7-1.1-14.1
		c-10.1-1-20.3-2.8-31.3-5.4h0c-9.5-2.3-17.9-4.9-25.9-8c-2.7,3.9-5.4,8.2-8.1,12.7C225,60.9,235.3,63.5,245.7,66.4z"/>
	<path class="st41" d="M385.8,138.6h-1.2h-3.4H377c-0.9-3.5-1.9-6.9-3-10.4c-1.3-1.7-2.8-3.5-4.7-5.4c-4.1-3.9-8.9-7.6-15.5-11.9
		c-7-4.4-14.5-8.7-23.2-12.9l-0.2-0.9c-0.3-1.2-0.6-2.3-0.9-3.5c-3.7-13.4-8.8-25.7-15.2-36.3c1-0.4,1.8-0.8,2.5-1.3
		c1.2-0.8,2.7-2.1,3.2-4.1c0.2-0.7,0.2-1.5,0.1-2.4c-0.4-0.3-0.8-0.6-1.2-0.9l0,0c0.3,1.1,0.3,2,0.1,2.9c-0.5,1.8-1.9,3-3,3.7
		c-0.7,0.4-1.4,0.8-2.3,1.2c-2.7-4.4-5.6-8.6-8.7-12.3c-3.5-4.3-7.3-8.3-11.4-11.8c-5.3-2.7-10.7-5.2-16.3-7.4
		c2.1,1.1,4,2.3,5.9,3.5c7,4.6,13.6,10.4,19.4,17.3c3,3.6,5.9,7.5,8.6,11.6c-2.4,0.7-5.1,1.1-8.4,1.4c-5.2,0.4-10.8,0.3-18.1-0.4
		c-0.6-0.1-1.2-0.1-1.9-0.2l-0.2,0c-0.3-3-0.6-5.5-1-7.8c-1.4-8.6-3.4-15.5-6.2-21.2c-1.2-2.4-2.5-4.6-4-6.4c-3.1-1.1-6.3-2.1-9.5-3
		c5.3,2,8.8,7,10.9,11.1c2.7,5.3,4.8,11.9,6.3,20.1c0.4,2.1,0.7,4.4,1,6.9c-9.6-1.2-19.7-3.4-30.7-6.4c-8.5-2.4-16.6-5.2-24.2-8.3
		c1.3-1.8,2.5-3.3,3.6-4.7c5.2-6.5,10.1-11.3,15-14.7c2.9-2,5.7-3.4,8.3-4.1c2.5-0.7,5-0.9,7.3-0.5c-3.4-0.9-6.7-1.7-10.1-2.3
		c-2.1,0.8-4.2,1.9-6.4,3.3c-5.3,3.4-10.6,8.3-16.2,15.1c-1.6,1.9-3.2,4-5.1,6.4c-2.2-0.9-4.1-1.8-5.9-2.7
		c-6.1-2.9-11.2-5.8-15.6-8.8c-1-0.7-2-1.4-2.9-2.2c4.1-2.2,8.2-4.2,12.3-5.8c8.4-3.3,16.8-5.3,25.2-6c3.3-0.3,6.6-0.3,10-0.2
		c-7.7-1.3-15.4-2-23-2.2c-4.4,0.9-8.8,2.2-13.1,3.8c-5.1,1.8-10.2,4.2-15.2,6.9c0,0-0.1,0-0.1-0.1l0,0c-1.1-1.2-1.9-2.4-2.5-3.5
		c-0.6-1.2-0.9-2.5-0.6-3.4c0.1-0.5,0.4-1,0.8-1.5c-1.4,0.2-2.8,0.5-4.2,0.8c0,0,0,0,0,0c-0.3,1.1-0.3,2.3-0.1,3.5
		c0.2,1,0.5,1.9,1,2.9c0.6,1.1,1.3,2.1,2.2,3.2c-9.8,5.7-19.3,13-28.2,21.7c-0.3,0.3-0.7,0.7-1,1c-0.2,0.2-0.4,0.4-0.7,0.7
		c-11.6-1-21.3-1.4-30.5-1c-5.7,0.3-10.4,0.8-14.6,1.5c-4.1,3.3-8,6.8-11.8,10.4c2.1-1.2,4.8-2.2,8.1-3.1c5.2-1.3,11.1-2.1,18.6-2.6
		c7.8-0.4,16-0.4,25,0.2c-10.6,11.6-20,24.8-28,39.3c0,0.1-0.1,0.1-0.1,0.2c-2.3-1.4-4.4-2.6-6.4-3.9c-6.3-4.1-11-7.7-14.9-11.4
		c-2.5-2.5-4.3-4.7-5.6-6.8c-1.5-2.5-2-4.9-1.5-6.7c0-0.2,0.1-0.3,0.1-0.5c-2.2,2.3-4.4,4.7-6.5,7.2c0.4,1.3,1.1,2.6,1.9,4
		c2.1,3.5,4.7,6.3,6.8,8.2c5.5,5.2,11.5,9.2,16.1,12.2c2,1.3,4.2,2.6,6.6,3.9c-3.4,6.7-6.5,13.7-9.3,20.8
		c-6.8-0.5-12.9-0.7-18.7-0.7c-6.1,0-14.3,0.3-22.6,1.7c-3,0.5-6.8,1.4-10.7,3c-1.1,3.4-2.2,6.8-3.1,10.2c0.9-1.5,2.8-2.9,5.2-4
		c2.6-1.2,5.8-2.1,9.8-2.8c6-1.1,12.7-1.6,21.3-1.7c0.7,0,1.3,0,2,0c4.7,0,9.5,0.1,14.5,0.4c-1.3,3.6-2.5,7.2-3.7,10.9H58.3h0h-5.5
		h-3.3H6.8v83.8h43.3h0.1h2.9h5.7h0.1h38.3c0.6,11.5,2.2,22.7,4.7,33.5c-8-4-14.9-7.9-21.3-12c-6.3-4.1-11-7.7-14.8-11.4
		c-2.5-2.4-4.3-4.7-5.6-6.8c-0.3-0.5-0.6-1.1-0.8-1.6c1.7,6,3.8,12,6.2,17.8c3.3,2.7,6.9,5.3,11.4,8.1c7.8,4.9,16.6,9.5,27,14.3
		l0.1,0.4c0.1,0.2,0.1,0.4,0.2,0.6c5.6,19.2,14.5,36.4,25.7,49.6c2.8,3.3,5.7,6.3,8.8,9.1c6.4,3.5,13,6.5,19.8,9.1
		c-2.3-1.3-4.5-2.6-6.6-4l0,0c-6.9-4.7-13.3-10.6-18.9-17.6c-9.7-12-17.3-26.8-22.5-44.2c0.2,0.1,0.5,0.2,0.7,0.3
		c0.3,0.1,0.6,0.2,0.8,0.4c12.5,5.2,25.4,9.9,39.7,14.4c0,0.4,0,0.7,0,1.1c0,0.7,0,1.3,0.1,2c0.4,8.7,1.2,16.2,2.5,23.2
		c1.6,8.6,3.8,15.5,6.7,21.1c1.1,2.1,2.3,4,3.6,5.6c2.8,0.9,5.6,1.8,8.4,2.6c-4.6-2.4-7.6-7.1-9.4-10.9c-2.6-5.3-4.5-11.9-5.8-20.1
		c-1.1-7.1-1.7-14.7-1.9-23.3c9.7,3,19.9,5.8,30.3,8.4c12.2,3,24.4,5.6,36.2,7.8l-0.3,0.5c-0.4,0.6-0.8,1.3-1.2,1.9
		c-4.5,7.2-8.8,13.2-13.2,18.5c-5.4,6.4-10.4,11.1-15.4,14.4c-2.9,1.9-5.8,3.2-8.4,3.9c-1.6,0.4-3.2,0.6-4.8,0.6
		c2.8,0.7,5.6,1.3,8.4,1.8c2.1-0.9,4.2-2,6.2-3.4c5.2-3.6,10.4-8.6,15.8-15.3c5.1-6.3,10-13.7,15.1-22.4c13,2.3,25.9,4,38.1,5.2
		c3.1,0.3,6.2,0.5,9.3,0.8c-0.1,0.1-0.1,0.1-0.2,0.2c-0.3,0.3-0.6,0.6-0.9,0.9c-13.9,13.6-29.6,23.9-45.4,29.7
		c-8.5,3.1-17,4.9-25.4,5.5c-1.5,0.1-3,0.1-4.7,0.1c5.5,0.7,11.1,1.2,16.6,1.4c5-1.1,9.9-2.5,14.8-4.4h0c16-6.2,31.4-16.6,45.8-31
		c0.4-0.4,0.9-0.9,1.3-1.4c0.3-0.3,0.5-0.5,0.8-0.8c9.7,0.6,18.5,0.7,26.9,0.2c7.9-0.4,13.8-1.3,19.3-2.7c2.1-0.6,3.9-1.2,5.6-1.9
		c3.5-3.1,6.9-6.4,10.1-9.8c0.6-3.4-0.7-6.7-2.1-8.9c-1.5-2.5-3.4-4.9-6.2-7.6c-4.1-3.9-8.8-7.6-15.5-11.9c-1.6-1-3.4-2.1-5.4-3.3
		c4.5-8.4,8.5-17.3,12-26.5c6.4,0.3,12.3,0.5,18.1,0.5c8.9-0.1,15.7-0.6,22-1.8c3-0.6,6.9-1.4,10.7-3.1c1.7-0.8,3-1.5,4.1-2.4
		c0.4-1.2,0.7-2.5,1.1-3.7c-0.5,0.7-1.1,1.4-1.8,2.1c-1.2,1.1-2.7,2-4.6,2.8c-2.9,1.3-6.1,2.2-10.5,3c-6.2,1.1-12.9,1.6-21.8,1.7
		c-5.3,0-10.7-0.2-16.6-0.6c1.3-3.4,2.4-6.8,3.5-10.1H376h0.3h4.8h2.8h0.9h42.8v-83.8H385.8z M282.9,59.6c0.7,0.1,1.3,0.1,2,0.2
		c6.8,0.5,12.8,0.5,18.3,0c3.3-0.3,6.1-0.8,8.5-1.6c6.6,10.5,11.9,22.5,15.6,35.7c0.3,0.8,0.5,1.7,0.7,2.5l0.1,0.4
		c-2.9-1.4-6-2.8-9-4.2c-11.1-5-23.1-9.8-35.6-14.2c0-6.6-0.3-13-0.9-18.9L282.9,59.6z M281.3,97c-0.6,13.3-2.1,27.3-4.3,41.6h-35.4
		c-4.8-1.2-9.7-2.5-14.6-3.9c-13.9-3.9-27.5-8.3-40.5-13c0,0,0-0.1,0-0.1c0-0.1,0.1-0.2,0.1-0.3c5.9-16.5,12-30.8,18.3-43.8
		c2.7-5.4,5.2-10.2,7.8-14.8c10.4,2,21,4.3,31.4,6.9c13.4,3.4,25.7,6.8,37.4,10.6C281.6,85.8,281.5,91.4,281.3,97z M182.8,132.2
		c0.5-1.5,1-2.9,1.5-4.4l0.3-0.9c12.8,4.2,25.9,8,40.2,11.6h-15C200.6,136.2,191.7,134.1,182.8,132.2z M191.8,138.6h-11
		c0.2-0.7,0.4-1.4,0.6-2C184.8,137.2,188.3,137.9,191.8,138.6z M237,222.4c6.2,1.3,12.4,2.5,18.5,3.6c-1,3.1-2,6-3.1,8.8
		c-11.7-4.4-24-8.6-36.8-12.4H237z M251.9,222.4h4.8c-0.1,0.3-0.2,0.6-0.3,0.9C254.9,223.1,253.4,222.7,251.9,222.4z M223.1,46
		c7.9,3,16.4,5.6,25.9,8h0c11,2.7,21.2,4.5,31.3,5.4c0.5,4.4,0.9,9.2,1.1,14.1c0.1,1.4,0.1,2.8,0.1,4.2c-11.5-4-23.5-7.8-35.8-11.3
		c-10.4-2.9-20.7-5.5-30.6-7.7C217.7,54.2,220.4,49.9,223.1,46z M193.5,30c1.4,1.2,2.9,2.4,4.7,3.6c4.5,3.1,9.5,5.8,16.3,8.9
		c1.5,0.7,3,1.3,4.9,2.1c-2.1,3-4.3,6.2-6.3,9.5c-0.7,1.1-1.4,2.3-2.1,3.4l-0.2,0.3c-14.7-3.2-28.4-5.5-41.8-7.1l-1-0.1
		c-0.3,0-0.6-0.1-0.9-0.1C175.5,42.2,184.4,35.4,193.5,30z M131.9,97.7c8.6-15.9,18.7-30,30-42c2.5,0.2,4.4,0.4,6.1,0.5h0
		c12.9,1.2,26.4,3.1,40.2,5.6c-2.5,4.3-4.9,8.7-7,13c-7,13.9-13.6,29.1-19.5,45.2c-9.5-3.6-18.8-7.4-27.6-11.3
		C145.9,105,138.7,101.4,131.9,97.7L131.9,97.7z M128.7,103.9c6.8,3.6,14.5,7.2,23.3,11l0,0c8.8,3.7,18.1,7.2,27.9,10.5
		c-0.7,1.9-1.3,3.9-2,5.8c-13.4-2.8-25.9-5-38.2-6.7c-7.1-0.9-13.4-1.7-19.2-2.2C123,116,125.7,109.8,128.7,103.9z M118.2,128.1
		c6.6,0.4,13.5,1.1,20.5,1.9c12.1,1.4,24.5,3.3,37.7,5.6c-0.3,1-0.6,2-0.9,2.9h-60.8C115.7,135.1,116.9,131.6,118.2,128.1z
		 M151.9,261.6c-0.2,4.9-0.3,10-0.3,15.1c-13-4.6-25.5-9.6-37.3-14.9c-2.2-1-4.2-1.9-6-2.8c-2.9-11.6-4.6-23.9-5.2-36.6h52.7
		C153.8,235.9,152.5,249,151.9,261.6z M224.2,297c-12-2.5-24.6-5.6-37.5-9.2c-10.4-2.9-20.8-6.2-30.9-9.6c0-5.4,0.2-11,0.6-17
		c0.7-12.1,2.1-24.9,4.3-38.7h42.7c0.2,0,0.4,0.1,0.5,0.1c17.3,4.3,33,8.9,47.9,14.1c-5.9,16.2-12.4,31.4-19.4,45.2
		C229.9,286.9,227.1,292,224.2,297z M273.9,304.4c-4.2-0.3-8-0.7-11.7-1.1c-11.4-1.4-23.2-3.3-35.9-5.9c2.6-4.6,5.2-9.6,7.8-14.7
		c6.5-13.2,12.6-27.7,18.6-44.3c0.1-0.3,0.2-0.6,0.3-0.8l0.1-0.4c8.8,3.1,16.6,6.1,24.1,9.2c11.4,4.9,20.5,9.4,28.6,14l-0.2,0.4
		c-0.2,0.3-0.4,0.7-0.5,1C296.4,277.8,285.9,292.1,273.9,304.4z M311.7,263.8c6.5,4.1,11.4,7.8,15.4,11.6c2.7,2.7,4.7,5,6.1,7.4
		c1.4,2.3,2.8,5.7,1.9,9.1c-0.9,3.4-3.9,5.7-6.2,7c-2.4,1.4-5.3,2.5-9,3.4c-5.4,1.4-11.3,2.1-19.1,2.5c-7.4,0.3-15.3,0.2-24.3-0.5
		c11.3-12.1,21.5-26.3,30.2-42.2l0.3-0.5c0.1-0.2,0.2-0.4,0.3-0.7C308.9,262.1,310.3,263,311.7,263.8z M306.2,259.7
		c-8.2-4.8-17.2-9.4-27.6-14c-7.8-3.5-15.9-6.9-24.8-10.3c1.1-3.2,2.2-6.2,3.1-9.1c12.6,2.2,24.9,4.1,36.8,5.5
		c8.3,1,16.5,1.7,24.3,2.2C314.6,242.8,310.6,251.5,306.2,259.7z M318.6,232.4c-7.7-0.5-15.8-1.4-25.5-2.7
		c-11.3-1.6-22.9-3.6-35.3-6.1c0.1-0.4,0.3-0.8,0.4-1.2h64C321,225.8,319.9,229.1,318.6,232.4z M278.5,138.6
		c2.4-14.9,3.9-28.6,4.7-41.5c0.3-6,0.5-11.3,0.5-16.3c12.2,4,23.3,8.1,34.1,12.6c3.9,1.7,7.4,3.2,10.8,4.8
		c3.3,12.9,5.3,26.4,5.9,40.4H278.5z M375.9,138.6h-39.8c-0.5-13.7-2.2-26.9-5.2-39.3c8,3.8,15,7.6,21.4,11.6
		c6.6,4.2,11.4,7.8,15.4,11.7c2.8,2.7,4.7,5,6.1,7.4C375.2,132.2,376.5,135.4,375.9,138.6z"/>
	<path class="st11" d="M367,91.4C343.8,51.3,306.5,22.7,261.9,11C217.4-0.8,170.8,5.6,130.8,29c-23.9,14-43.7,33-58.3,55.7
		c-9.8,15.2-17.3,32.1-22,50.1c-0.3,1.3-0.7,2.6-1,3.8h3.3h5.5c0,0,0-0.1,0-0.1c0.1-0.5,0.3-1,0.4-1.6c0.1-0.3,0.2-0.7,0.3-1
		c0.9-3.4,2-6.8,3.1-10.2c6.7-19.6,16.8-37.6,29.9-53.1c2.1-2.5,4.2-4.9,6.5-7.2c1.5-1.6,3-3.2,4.6-4.7c3.7-3.6,7.7-7.1,11.8-10.4
		c6.3-5.1,13.1-9.8,20.3-13.9c16.3-9.5,33.7-16.1,51.7-19.6c1.4-0.3,2.8-0.5,4.2-0.8c8.9-1.5,17.8-2.2,26.8-2.2c1.3,0,2.5,0,3.8,0.1
		c7.7,0.2,15.4,0.9,23,2.2c1.5,0.3,3,0.5,4.5,0.8c3.4,0.7,6.8,1.4,10.1,2.3c0.1,0,0.3,0.1,0.4,0.1h0c0.7,0.2,1.4,0.4,2.1,0.6
		c3.2,0.9,6.4,1.9,9.5,3c2,0.7,3.9,1.4,5.9,2.2c5.6,2.2,11.1,4.6,16.3,7.4c0,0,0,0,0,0c0.5,0.2,0.9,0.5,1.4,0.8
		c0.6,0.3,1.1,0.6,1.7,0.9c0.2,0.1,0.5,0.3,0.7,0.4c7.6,4.2,14.8,9,21.5,14.3c0.4,0.3,0.8,0.6,1.2,0.9c0,0,0,0,0,0
		c0.1,0.1,0.2,0.1,0.2,0.2c1.4,1.1,2.8,2.3,4.2,3.5c0.3,0.2,0.5,0.5,0.8,0.7c0.9,0.8,1.9,1.7,2.8,2.5c12.3,11.2,22.9,24.4,31.5,39.2
		c6,10.4,10.9,21.4,14.5,32.6c1.1,3.4,2.1,6.9,3,10.4h4.2h3.4h1.2C381.9,122.2,375.6,106.4,367,91.4z"/>
</g>
<g>
	<g>
		<path class="st42" d="M364.4,192L364.4,192c0-1.2,0.9-2.1,2.1-2.1c1.2,0,2.1,0.9,2.1,2.1v0c0,1.1-0.9,2.1-2.1,2.1
			C365.4,194.1,364.4,193.1,364.4,192z M368.4,192L368.4,192c0-1-0.8-1.9-1.8-1.9c-1,0-1.8,0.9-1.8,1.9v0c0,1,0.8,1.9,1.8,1.9
			C367.6,193.9,368.4,193,368.4,192z M365.7,190.9h1c0.5,0,0.8,0.2,0.8,0.7c0,0.3-0.2,0.6-0.5,0.6l0.6,0.8h-0.5l-0.5-0.7h-0.4v0.7
			h-0.4V190.9z M366.6,191.9c0.3,0,0.4-0.1,0.4-0.3c0-0.2-0.2-0.3-0.4-0.3h-0.5v0.7H366.6z"/>
	</g>
	<g>
		<path class="st0" d="M64.8,189.6h2.3l-0.1,20.6h-2.3L64.8,189.6z"/>
		<path class="st0" d="M77.8,189.6H80l13,16.5l0-16.5h2.3v20.6h-1.8l-13.3-16.9L80,210.3h-2.2L77.8,189.6z"/>
		<path class="st0" d="M111.1,191.8h-6.9v-2.2h16.2l0,2.1h-6.9v18.5h-2.4L111.1,191.8z"/>
		<path class="st0" d="M129.4,189.6h14.9v2.1h-12.6l0,7l11.3,0l0,2.1l-11.2,0l0,7.2l12.7,0l0,2.1h-15.1V189.6z"/>
		<path class="st0" d="M153.7,189.6h8.3c3.1,0,5.2,0.7,6.6,2.1c0.6,0.6,1.5,2.4,1.5,3.8l0,0c0,3.4-2,5.6-5.6,6.3l6.3,8.4l-2.9,0
			l-6-8h-5.9l0,8h-2.3L153.7,189.6z M161.8,200.2c4.4,0,5.9-2,5.9-4.5l0,0c-0.3-2-1.2-3.9-5.8-3.9l-5.9,0l0,8.3L161.8,200.2z"/>
		<path class="st0" d="M179.6,189.6h2.2l13,16.6l0-16.6h2.3l0,20.6h-1.9l-13.3-16.9l0,16.9h-2.3L179.6,189.6z"/>
		<path class="st0" d="M215.1,189.5h2.2l9.4,20.8h-2.5l-2.4-5.4l-11.3,0l-2.4,5.4h-2.4L215.1,189.5z M220.9,202.7l-4.7-10.5
			l-4.7,10.5H220.9z"/>
		<path class="st0" d="M238.2,191.8l-6.9,0v-2.2h16.2v2.2h-6.9l0,18.5h-2.3L238.2,191.8z"/>
		<path class="st0" d="M256.6,189.6h2.3v20.6h-2.3V189.6z"/>
		<path class="st0" d="M268.7,200L268.7,200c0-5.7,4.3-10.7,10.4-10.7c6.6,0,10.7,5,10.7,10.6l0,0c0.2,6.2-5.5,12.2-13.2,10.5
			C272.3,209.4,268.8,205.3,268.7,200z M287.3,200L287.3,200c0-5.2-3.8-8.6-8.1-8.5c-5.1,0.1-8.1,4-8.1,8.5v0.1
			c0,4.9,3.3,7.5,5.9,8.3C282.6,209.7,287.5,205.2,287.3,200z"/>
		<path class="st0" d="M299.2,189.6h2.2l13,16.5l0-16.5h2.3v20.6h-1.9l-13.3-16.9l0,16.9h-2.3L299.2,189.6z"/>
		<path class="st0" d="M334.7,189.5h2.2l9.4,20.8h-2.5l-2.5-5.5l-11.2,0l-2.5,5.4h-2.4L334.7,189.5z M340.5,202.7l-4.7-10.5
			l-4.7,10.5L340.5,202.7z"/>
		<path class="st0" d="M355,189.6h2.3l0,18.5l11.6,0l0,2.1H355V189.6z"/>
	</g>
	<g>
		<path class="st43" d="M29.8,156.4h-10V150h27.3v6.4h-10v25.1h-7.3V156.4z"/>
		<path class="st43" d="M49.8,165.8L49.8,165.8c0-9,7.4-16.4,17.6-16.4c10.2,0,17.5,7.2,17.5,16.2v0.1c0,8.9-7.4,16.3-17.6,16.3
			C57.1,182,49.8,174.8,49.8,165.8z M77.3,165.8L77.3,165.8c0-5.5-4.1-10-10-10c-5.8,0-9.9,4.4-9.9,9.8v0.1c0,5.4,4.1,9.9,10,9.9
			C73.3,175.6,77.3,171.2,77.3,165.8z"/>
		<path class="st43" d="M100.6,149.8h6.7l14.1,31.7h-7.6l-3-7.1h-14l-3,7.1h-7.4L100.6,149.8z M108.2,168.3l-4.4-10.2l-4.4,10.2
			H108.2z"/>
		<path class="st43" d="M123.8,176.9l4.3-4.9c3,2.3,6.1,3.8,9.9,3.8c3,0,4.8-1.1,4.8-3v-0.1c0-1.8-1.1-2.7-6.6-4
			c-6.6-1.6-10.9-3.4-10.9-9.6v-0.1c0-5.7,4.8-9.5,11.6-9.5c4.8,0,8.9,1.4,12.3,4l-3.8,5.2c-2.9-1.9-5.8-3.1-8.6-3.1
			c-2.8,0-4.2,1.2-4.2,2.7v0.1c0,2.1,1.4,2.7,7.1,4.1c6.7,1.7,10.5,4,10.5,9.4v0.1c0,6.2-5,9.8-12.1,9.8
			C132.8,181.9,127.7,180.3,123.8,176.9z"/>
		<path class="st43" d="M163.2,156.4h-10V150h27.3v6.4h-10v25.1h-7.3V156.4z"/>
		<path class="st43" d="M186.1,150h7.8l8.7,13.3l8.7-13.3h7.8v31.5h-7.2V161l-9.3,13.4h-0.2l-9.2-13.3v20.4h-7.1V150z"/>
		<path class="st43" d="M238.3,149.8h6.7l14.1,31.7h-7.6l-3-7.1h-14l-3,7.1h-7.4L238.3,149.8z M245.9,168.3l-4.4-10.2l-4.4,10.2
			H245.9z"/>
		<path class="st43" d="M261.5,176.9l4.3-4.9c3,2.3,6.1,3.8,9.9,3.8c3,0,4.8-1.1,4.8-3v-0.1c0-1.8-1.1-2.7-6.6-4
			c-6.6-1.6-10.9-3.4-10.9-9.6v-0.1c0-5.7,4.8-9.5,11.6-9.5c4.8,0,8.9,1.4,12.3,4l-3.8,5.2c-2.9-1.9-5.8-3.1-8.6-3.1
			c-2.8,0-4.2,1.2-4.2,2.7v0.1c0,2.1,1.4,2.7,7.1,4.1c6.7,1.7,10.5,4,10.5,9.4v0.1c0,6.2-5,9.8-12.1,9.8
			C270.5,181.9,265.5,180.3,261.5,176.9z"/>
		<path class="st43" d="M300.9,156.4h-10V150h27.3v6.4h-10v25.1h-7.3V156.4z"/>
		<path class="st43" d="M323.8,150h24.9v6.2H331v6.4h15.6v6.2H331v6.6h17.9v6.2h-25.1V150z"/>
		<path class="st43" d="M355.4,150h15.1c4.2,0,7.4,1.1,9.6,3.2c1.8,1.8,2.8,4.2,2.8,7.2v0.1c0,5.1-2.9,8.3-7.1,9.8l8.1,11.2h-8.5
			l-7.1-10.1h-5.7v10.1h-7.3V150z M370,165.3c3.5,0,5.6-1.8,5.6-4.4v-0.1c0-3-2.2-4.5-5.7-4.5h-7.2v9H370z"/>
		<path class="st43" d="M387.2,176.9l4.3-4.9c3,2.3,6.1,3.8,9.9,3.8c3,0,4.8-1.1,4.8-3v-0.1c0-1.8-1.1-2.7-6.6-4
			c-6.6-1.6-10.9-3.4-10.9-9.6v-0.1c0-5.7,4.8-9.5,11.6-9.5c4.8,0,8.9,1.4,12.3,4l-3.8,5.2c-2.9-1.9-5.8-3.1-8.6-3.1
			c-2.8,0-4.2,1.2-4.2,2.7v0.1c0,2.1,1.4,2.7,7.1,4.1c6.7,1.7,10.5,4,10.5,9.4v0.1c0,6.2-5,9.8-12.1,9.8
			C396.2,181.9,391.2,180.3,387.2,176.9z"/>
	</g>
</g>
</svg>
